<svg xmlns="http://www.w3.org/2000/svg" xmlns:xlink="http://www.w3.org/1999/xlink" width="365.775" height="165.616" viewBox="0 0 365.775 165.616"><defs><style>.a{fill:#96abe8;}.b{fill:#2d3e9f;stroke:rgba(0,0,0,0);stroke-miterlimit:10;}.c{filter:url(#c);}.d{filter:url(#a);}</style><filter id="a" x="10.775" y="10.616" width="355" height="155" filterUnits="userSpaceOnUse"><feOffset dx="5" dy="5" input="SourceAlpha"/><feGaussianBlur stdDeviation="5" result="b"/><feFlood flood-color="#e2e6ff" flood-opacity="0.8"/><feComposite operator="in" in2="b"/><feComposite in="SourceGraphic"/></filter><filter id="c" x="0" y="0" width="355.987" height="156.231" filterUnits="userSpaceOnUse"><feOffset dx="-5" dy="-5" input="SourceAlpha"/><feGaussianBlur stdDeviation="5" result="d"/><feFlood flood-color="#fff" flood-opacity="0.161"/><feComposite operator="in" in2="d"/><feComposite in="SourceGraphic"/></filter></defs><g transform="translate(-733.225 -210.792)"><g transform="translate(754 231.409)"><g class="d" transform="matrix(1, 0, 0, 1, -20.77, -20.62)"><path class="a" d="M271.78,118.45l11.439-40.3L230.954,63.7,249.031,0l23.7,6.553L261.3,46.858l28.561,7.894,11.44-40.3L325,21,295.483,125ZM74.483,76.613,23.717,95.564,0,33.693,23.024,25.1l15,39.148L65.771,53.891,50.766,14.743,73.79,6.15l38.721,101.016-23.023,8.6Zm45.4-20.926c0-26.279,21.585-47.581,48.214-47.581s48.215,21.3,48.215,47.581-21.585,47.58-48.215,47.58S119.88,81.966,119.88,55.687Zm21.212,0A27.048,27.048,0,0,0,194.206,62.5a26.458,26.458,0,0,0,.151-13.018,27.042,27.042,0,0,0-53.264,6.205Z" transform="translate(20.77 20.62)"/></g></g><g transform="translate(753.87 231.409)"><g class="c" transform="matrix(1, 0, 0, 1, -20.64, -20.62)"><path class="b" d="M272.207,118.449l11.289-40.3L231.917,63.7,249.756,0l23.392,6.554-11.289,40.3,28.185,7.894,11.29-40.3L324.726,21,295.6,125ZM73.5,76.613l-50.1,18.95L0,33.693,22.722,25.1,37.529,64.247,64.906,53.89,50.1,14.743,72.82,6.15l38.211,101.014-22.72,8.6Zm46.8-20.927a47.58,47.58,0,1,1,47.579,47.58A47.579,47.579,0,0,1,120.3,55.686Zm20.932,0a26.649,26.649,0,1,0,26.647-26.647A26.646,26.646,0,0,0,141.236,55.686Z" transform="translate(20.64 20.62)"/></g></g></g></svg>