<svg xmlns="http://www.w3.org/2000/svg" xmlns:xlink="http://www.w3.org/1999/xlink" width="155" height="155" viewBox="0 0 155 155"><defs><style>.a{fill:#fff;}.b{fill:#f2f3f6;}.b,.c,.d,.e{stroke:#fff;}.c{fill:#01b86e;}.d{fill:#85e374;}.e{fill:#62e7e9;}.f{fill:#f1b761;}.g{stroke:none;}.h{fill:none;}.i{filter:url(#i);}.j{filter:url(#g);}.k{filter:url(#e);}.l{filter:url(#c);}.m{filter:url(#a);}</style><filter id="a" x="20" y="20" width="135" height="135" filterUnits="userSpaceOnUse"><feOffset dx="10" dy="10" input="SourceAlpha"/><feGaussianBlur stdDeviation="10" result="b"/><feFlood flood-color="#e3e6f8" flood-opacity="0.749"/><feComposite operator="in" in2="b"/><feComposite in="SourceGraphic"/></filter><filter id="c" x="0" y="0" width="135" height="135" filterUnits="userSpaceOnUse"><feOffset dx="-10" dy="-10" input="SourceAlpha"/><feGaussianBlur stdDeviation="10" result="d"/><feFlood flood-color="#fff"/><feComposite operator="in" in2="d"/><feComposite in="SourceGraphic"/></filter><filter id="e" x="37.431" y="74.7" width="65.744" height="45.316" filterUnits="userSpaceOnUse"><feOffset dx="2" input="SourceAlpha"/><feGaussianBlur stdDeviation="2" result="f"/><feFlood flood-color="#85e374" flood-opacity="0.2"/><feComposite operator="in" in2="f"/><feComposite in="SourceGraphic"/></filter><filter id="g" x="50" y="40" width="50" height="50" filterUnits="userSpaceOnUse"><feOffset dx="5" dy="5" input="SourceAlpha"/><feGaussianBlur stdDeviation="5" result="h"/><feFlood flood-color="#f1b761" flood-opacity="0.2"/><feComposite operator="in" in2="h"/><feComposite in="SourceGraphic"/></filter><filter id="i" x="40" y="30" width="50" height="50" filterUnits="userSpaceOnUse"><feOffset dx="-5" dy="-5" input="SourceAlpha"/><feGaussianBlur stdDeviation="5" result="j"/><feFlood flood-color="#fff"/><feComposite operator="in" in2="j"/><feComposite in="SourceGraphic"/></filter></defs><g transform="translate(-110 -25)"><g transform="translate(150 65)"><g class="m" transform="matrix(1, 0, 0, 1, -40, -40)"><circle class="a" cx="37.5" cy="37.5" r="37.5" transform="translate(40 40)"/></g><g class="l" transform="matrix(1, 0, 0, 1, -40, -40)"><g class="b" transform="translate(40 40)"><circle class="g" cx="37.5" cy="37.5" r="37.5"/><circle class="h" cx="37.5" cy="37.5" r="37"/></g></g></g><g transform="translate(152 106.2)"><path class="c" d="M295.8,661.52c-7.208,7.467-10.839,17.553-7.5,23.384a36.684,36.684,0,0,0,40.354-29.4,14.111,14.111,0,0,0-1.4-.508C315.642,651.019,305.323,654.533,295.8,661.52Z" transform="translate(-257.015 -651.834)"/><g class="k" transform="matrix(1, 0, 0, 1, -42, -81.2)"><path class="d" d="M243.428,673.179c12.436-8.252,26.724-6.462,26.724-11.783,0-1.968-2.54-2.726-4.13-3.02-9.777-4.592-15.212-8.515-29.038-8.515-7.374,0-15.073,2.78-19.506,6.723a36.991,36.991,0,0,0,26.043,25.422C243.212,679.694,240.705,674.985,243.428,673.179Z" transform="translate(-175.48 -568.66)"/></g><path class="e" d="M276.639,683.925c.715-3.887,22.726-6.849,22.725-10.881,0-2.736-9.486-3.427-9.486-3.427s4.13,1.555,4.13,3.018c0,2.592-34.837,6.686-34.837,13.741,0,1.733,1.624,3.625,4.071,5.494a36.577,36.577,0,0,0,30.565-1.736C287.176,688.986,276.137,686.653,276.639,683.925Z" transform="translate(-241.437 -661.084)"/></g><g transform="translate(169.8 74.6)"><g class="j" transform="matrix(1, 0, 0, 1, -59.8, -49.6)"><circle class="a" cx="10" cy="10" r="10" transform="translate(60 50)"/></g><g class="i" transform="matrix(1, 0, 0, 1, -59.8, -49.6)"><path class="f" d="M10,0A10,10,0,1,1,0,10,10,10,0,0,1,10,0Z" transform="translate(60 50)"/></g></g></g></svg>