<svg xmlns="http://www.w3.org/2000/svg" xmlns:xlink="http://www.w3.org/1999/xlink" width="101.867" height="100" viewBox="0 0 101.867 100"><defs><style>.a{fill:url(#a);}.b{fill:url(#d);}.c{filter:url(#e);}.d{filter:url(#b);}</style><linearGradient id="a" x1="0.064" y1="0.022" x2="0.738" y2="0.782" gradientUnits="objectBoundingBox"><stop offset="0" stop-color="#96abe8"/><stop offset="0" stop-color="#f2f3f6"/><stop offset="1" stop-color="#e5e6ec"/></linearGradient><filter id="b" x="0" y="0" width="101.867" height="100" filterUnits="userSpaceOnUse"><feOffset dx="5" dy="5" input="SourceAlpha"/><feGaussianBlur stdDeviation="10" result="c"/><feFlood flood-color="#e3e6f8" flood-opacity="0.749"/><feComposite operator="in" in2="c"/><feComposite in="SourceGraphic"/></filter><linearGradient id="d" x1="0.064" y1="0.022" x2="0.606" y2="0.663" gradientUnits="objectBoundingBox"><stop offset="0" stop-color="#96abe8"/><stop offset="1" stop-color="#2d3e9f"/></linearGradient><filter id="e" x="13" y="13" width="60" height="58" filterUnits="userSpaceOnUse"><feOffset dx="-3" dy="-3" input="SourceAlpha"/><feGaussianBlur stdDeviation="3" result="f"/><feFlood flood-color="#fff"/><feComposite operator="in" in2="f"/><feComposite in="SourceGraphic"/></filter></defs><g transform="translate(-561.918 251)"><g transform="translate(586.918 -226)"><g class="d" transform="matrix(1, 0, 0, 1, -25, -25)"><path class="a" d="M1.58,40A1.584,1.584,0,0,1,0,38.411v-20.1a1.587,1.587,0,0,1,1.582-1.592h9.99A11.605,11.605,0,0,1,23.141,28.123,11.745,11.745,0,0,1,11.359,40ZM7.1,23.922V32.8a.01.01,0,0,0,.011.01h4.41a4.435,4.435,0,0,0,4.418-4.6,4.508,4.508,0,0,0-4.533-4.295H7.112A.01.01,0,0,0,7.1,23.922ZM19.518,37.672c.284-.243.56-.5.822-.767a12.178,12.178,0,0,0,3.5-8.8,12.3,12.3,0,0,0-3.671-8.559,12.158,12.158,0,0,0-8.592-3.534H4.421V1.576A1.571,1.571,0,0,1,5.987,0H23.143a18.836,18.836,0,0,1,0,37.672Zm3.046-18.845a.612.612,0,0,0-.017.139.6.6,0,1,0,1.18-.135l10.727-7.783-10.98,7.415a.593.593,0,0,0-.664,0L16.138,14.1Z" transform="translate(25 25)"/></g><g class="c" transform="matrix(1, 0, 0, 1, -25, -25)"><path class="b" d="M1.585,40A1.587,1.587,0,0,1,0,38.411v-20.1a1.589,1.589,0,0,1,1.587-1.592H11.609A11.624,11.624,0,0,1,23.215,28.123,11.763,11.763,0,0,1,11.4,40ZM7.124,23.923V32.8a.01.01,0,0,0,.011.01h4.424a4.441,4.441,0,0,0,4.432-4.6,4.516,4.516,0,0,0-4.548-4.295H7.134A.01.01,0,0,0,7.124,23.923ZM19.58,37.671c.285-.243.562-.5.825-.766a12.158,12.158,0,0,0,3.507-8.8,12.322,12.322,0,0,0-12.3-12.092H4.435V1.576A1.574,1.574,0,0,1,6.006,0H23.217a18.836,18.836,0,0,1,0,37.671Zm3.056-18.845a.608.608,0,0,0-.018.139.6.6,0,1,0,1.2,0,.59.59,0,0,0-.016-.135l10.761-7.782L23.547,18.463a.6.6,0,0,0-.666,0L16.189,14.1Z" transform="translate(25 25)"/></g></g></g></svg>