<svg xmlns="http://www.w3.org/2000/svg" width="39" height="58" viewBox="0 0 39 58"><defs><style>.a{fill:#e4ebff;}.b{fill:#c9d7ff;}.c{fill:#fff;}.d{fill:#e8f3ff;}.e{fill:#2d3e9f;}</style></defs><g transform="translate(-78)"><path class="a" d="M86.963,64.067A.964.964,0,0,1,86,63.1V58.356a9.012,9.012,0,0,1,5.738-8.406c2.574-1,3.417-.228,5.225-1.017a4.994,4.994,0,0,0,3-4.582v-.825l.018-.045a11.964,11.964,0,0,1-7.359-11.056V26.95a11.808,11.808,0,0,1,8.948-11.462L102.8,9.421a1.767,1.767,0,0,1,3.466,0l1.234,6.067a11.807,11.807,0,0,1,8.948,11.462v5.474a11.964,11.964,0,0,1-7.359,11.056l.018.045v.825a4.994,4.994,0,0,0,3,4.582c1.781.777,2.56.036,5.075.961a9.012,9.012,0,0,1,5.889,8.463V63.1a.964.964,0,0,1-.963.967Z" transform="translate(-7.033 -7.033)"/><path class="b" d="M86.963,361.884a.965.965,0,0,1-.963-.967v-4.744a9.012,9.012,0,0,1,5.738-8.406c2.574-1,3.417-.228,5.225-1.017h0a8.255,8.255,0,0,0,15.14,0h0c1.781.777,2.56.036,5.075.961a9.012,9.012,0,0,1,5.889,8.463v4.744a.965.965,0,0,1-.963.967Z" transform="translate(-7.033 -304.851)"/><path class="b" d="M275.64,350.5a5.006,5.006,0,0,0,1.666.284,9.011,9.011,0,0,1,9.011,9.01v2.086h2.658a.966.966,0,0,0,.967-.967v-4.744a9.011,9.011,0,0,0-9.011-9.011,5,5,0,0,1-2-.413h0A8.287,8.287,0,0,1,275.64,350.5Z" transform="translate(-173.908 -304.851)"/><path class="a" d="M164.775,81.432v5.474a11.888,11.888,0,1,1-23.775,0V81.432a11.8,11.8,0,0,1,8.928-11.462l-.294,1.454a2.412,2.412,0,0,0,2.352,2.9h1.8a2.412,2.412,0,0,0,2.352-2.9l-.294-1.454A11.8,11.8,0,0,1,164.775,81.432Z" transform="translate(-55.388 -61.515)"/><path class="a" d="M219.088,16.942a2.416,2.416,0,0,1-2.367,2.9h-1.815a2.416,2.416,0,0,1-2.367-2.9c.383-1.881.08-.395,1.535-7.521a1.776,1.776,0,0,1,3.48,0C219.008,16.547,218.7,15.061,219.088,16.942Z" transform="translate(-118.313 -7.033)"/><path class="c" d="M100.3,350.5a5.006,5.006,0,0,1-1.666.284,9.011,9.011,0,0,0-9.011,9.01v2.086H86.967a.966.966,0,0,1-.967-.967v-4.744a9.011,9.011,0,0,1,9.011-9.011,5,5,0,0,0,2-.413h0A8.287,8.287,0,0,0,100.3,350.5Z" transform="translate(-7.033 -304.851)"/><path class="b" d="M210.326,303.659a12,12,0,0,1-9.456,0,7.488,7.488,0,0,0,.137-1.984l.018-.045a11.987,11.987,0,0,0,9.147,0l.018.045A7.491,7.491,0,0,0,210.326,303.659Z" transform="translate(-108.098 -265.183)"/><path class="c" d="M150.067,73.278a1.486,1.486,0,0,1-.351,2.081,11.78,11.78,0,0,0-5.09,9.7v5.474a1.475,1.475,0,0,1-2.848.625,11.932,11.932,0,0,1-.777-4.25V81.432a11.817,11.817,0,0,1,8.984-11.462l-.3,1.454A2.4,2.4,0,0,0,150.067,73.278Z" transform="translate(-55.427 -61.515)"/><path class="c" d="M217.142,10.21a1.777,1.777,0,0,0-1.014,1.266c-.986,4.832-1.38,6.681-1.521,7.491a.689.689,0,0,1-1.06.458,2.414,2.414,0,0,1-1.008-2.482c.383-1.881.08-.395,1.535-7.521A1.776,1.776,0,0,1,215.813,8C217.262,8,218.122,9.77,217.142,10.21Z" transform="translate(-118.31 -7.033)"/><path class="a" d="M159.073,347.711c-.012.237-.008-.917-.008,14.174H133.718V347.87l-.038-.1c2.569-1,3.41-.228,5.216-1.017h0a8.234,8.234,0,0,0,15.112,0h0C155.785,347.527,156.563,346.786,159.073,347.711Z" transform="translate(-48.952 -304.851)"/><path class="d" d="M212.227,434.148l-1.24,1.694h-6.042l-1.24-1.694a.725.725,0,0,1,.663-1.149l1.559.17a.725.725,0,0,0,.742-.428l.633-1.435a.725.725,0,0,1,1.327,0l.633,1.435a.725.725,0,0,0,.742.428l1.559-.17A.725.725,0,0,1,212.227,434.148Z" transform="translate(-110.466 -378.809)"/><path class="a" d="M141.012,349.612a.669.669,0,0,1-.457,1.176,9,9,0,0,0-6.836,3.139V347.87l-.039-.1c2.585-1,3.43-.228,5.247-1.017h0A8.274,8.274,0,0,0,141.012,349.612Z" transform="translate(-48.985 -304.851)"/><path class="b" d="M284.021,353.791a8.988,8.988,0,0,0-6.715-3,5.006,5.006,0,0,1-1.666-.284,8.283,8.283,0,0,0,3.294-3.753h0c1.769.774,2.605.041,5.1.961C284.02,347.893,284.02,347.254,284.021,353.791Z" transform="translate(-173.875 -304.851)"/><path class="e" d="M117,51.323v5.71a.963.963,0,1,1-1.926,0v-5.71a8.036,8.036,0,0,0-3.972-6.948V57.033a.963.963,0,1,1-1.926,0V43.563a8.026,8.026,0,0,0-2.115-.284,5.908,5.908,0,0,1-5.087-2.867.964.964,0,1,1,1.645-1.006,4,4,0,0,0,3.442,1.939A9.953,9.953,0,0,1,117,51.323Zm-14.392,1.728L99.6,53.38,98.381,50.6a.962.962,0,0,0-1.762,0L95.4,53.38l-3.007-.328a.967.967,0,0,0-.881,1.532l2.2,3.021a.964.964,0,1,0,1.554-1.142l-.913-1.252,1.536.168a.962.962,0,0,0,.985-.571l.624-1.42.624,1.42a.963.963,0,0,0,.985.571l1.536-.168-.913,1.252a.964.964,0,1,0,1.554,1.142l2.2-3.021A.967.967,0,0,0,102.608,53.051Zm.957-8.768a.969.969,0,0,1-.117,1.362,9.212,9.212,0,0,1-14-2.559c-1.36.354-2.024.012-3.741.51V57.033a.963.963,0,1,1-1.926,0V44.447a8.035,8.035,0,0,0-3.852,6.876v5.71a.963.963,0,1,1-1.926,0v-5.71a9.953,9.953,0,0,1,9.939-9.977,4.022,4.022,0,0,0,4.024-4.029v-.255A12.956,12.956,0,0,1,84.62,25.538V19.916A12.753,12.753,0,0,1,93.707,7.686l1.116-5.491a2.73,2.73,0,0,1,5.354,0l1.529,7.521a3.38,3.38,0,0,1-3.3,4.06H96.6a3.379,3.379,0,0,1-3.333-3.886,10.881,10.881,0,0,0-6.718,10.027V25.39a10.954,10.954,0,1,0,21.907,0V19.917a10.793,10.793,0,0,0-4.079-8.48.965.965,0,0,1,1.2-1.513,12.719,12.719,0,0,1,4.807,9.993v5.547A12.907,12.907,0,0,1,93.868,37.8a5.945,5.945,0,0,1-2.655,4.5,7.289,7.289,0,0,0,10.995,1.869.961.961,0,0,1,1.357.117ZM96.6,11.842H98.4a1.448,1.448,0,0,0,1.415-1.74L98.29,2.581a.806.806,0,0,0-1.579,0L95.181,10.1A1.448,1.448,0,0,0,96.6,11.842Z"/></g></svg>