<svg xmlns="http://www.w3.org/2000/svg" width="46" height="57" viewBox="0 0 46 57"><defs><style>.a{fill:#f3f6ff;}.b{fill:#c9d7ff;}.c{fill:#c79a83;}.d{fill:#8bc4ff;}.e{fill:#fff;}.f{fill:#2d3e9f;}</style></defs><g transform="translate(-48.876)"><path class="a" d="M100.48,39.476a2.873,2.873,0,0,0-.158-3.466l-1.843-2.237a2.871,2.871,0,0,1-.539-2.674l1.088-3.565a2.9,2.9,0,0,0-1.2-3.269l-2.166-1.438a2.9,2.9,0,0,1-1.22-3.2A2.969,2.969,0,0,0,91.626,15.9l-.958-.04a4.451,4.451,0,0,1-4.216-3.5l-.067-.331a3.044,3.044,0,0,0-4.468-1.965,3.1,3.1,0,0,1-3.64-.467l-.8-.778a3.1,3.1,0,0,0-4.272,0l-1.758,1.7a3.053,3.053,0,0,1-1.633.813l-3.634.593a4.158,4.158,0,0,0-3.435,5.191l.713,2.528a2.866,2.866,0,0,1-1.2,3.17l-2.206,1.465a2.865,2.865,0,0,0-1.186,3.228l1.1,3.607a2.841,2.841,0,0,1-.533,2.642l-1.872,2.273a2.836,2.836,0,0,0-.157,3.422l1.8,2.637a2.836,2.836,0,0,1-.15,3.414l-.266.327a3.4,3.4,0,0,0,.281,4.632c2.589,2.553,2.55,2.518,2.562,2.524a8.72,8.72,0,0,0-1.223,4.465v4.662a.956.956,0,0,0,.963.95H96.526a.956.956,0,0,0,.963-.95V57.452a8.6,8.6,0,0,0-1.223-4.465c.012-.006-.122.123,2.562-2.524a3.4,3.4,0,0,0,.281-4.632l-.249-.306a2.871,2.871,0,0,1-.152-3.456ZM95.648,52.083h0c.036.046.072.094.107.141C95.721,52.176,95.685,52.129,95.648,52.083Z" transform="translate(-7.067 -7.018)"/><path class="a" d="M165.416,105.788v4.878a12.026,12.026,0,0,1-23.975,1.133.945.945,0,0,1,.4-.853c3.019-2.185,3.99-4.235,4.282-5.782.271-1.436-.041-2.445.607-3.936a7.173,7.173,0,0,1,6.62-4.028h3.331A8.664,8.664,0,0,1,165.416,105.788Z" transform="translate(-81.521 -85.697)"/><path class="b" d="M90.867,32.077V27.2A8.628,8.628,0,0,0,82.2,18.611h-3.3a7.111,7.111,0,0,0-6.568,4.028c-.643,1.491-.334,2.5-.6,3.936-.29,1.548-1.253,3.6-4.248,5.782a.948.948,0,0,0-.393.853,11.834,11.834,0,0,0,7.308,9.782l-.018.043v.815a4.957,4.957,0,0,1-4.988,4.931,8.992,8.992,0,0,0-7.755,4.409c-.012-.006.122.124-2.562-2.536A3.43,3.43,0,0,1,58.787,46l.266-.328a2.858,2.858,0,0,0,.15-3.429l-1.8-2.649a2.858,2.858,0,0,1,.157-3.437l1.872-2.283a2.864,2.864,0,0,0,.533-2.654l-1.1-3.623a2.884,2.884,0,0,1,1.186-3.243l2.206-1.472a2.885,2.885,0,0,0,1.2-3.184l-.713-2.539a4.176,4.176,0,0,1,3.435-5.214l3.634-.6a3.048,3.048,0,0,0,1.633-.817L73.2,8.826a3.088,3.088,0,0,1,4.272,0l.8.781a3.092,3.092,0,0,0,3.64.469,3.041,3.041,0,0,1,4.468,1.974l.067.333A4.457,4.457,0,0,0,90.667,15.9l.958.041a2.98,2.98,0,0,1,2.817,3.738,2.924,2.924,0,0,0,1.22,3.219l2.166,1.444a2.92,2.92,0,0,1,1.2,3.283L97.939,31.2a2.894,2.894,0,0,0,.539,2.686l1.843,2.247a2.9,2.9,0,0,1,.158,3.481l-1.772,2.6a2.894,2.894,0,0,0,.152,3.472l.249.308a3.43,3.43,0,0,1-.281,4.653c-2.589,2.565-2.55,2.53-2.562,2.536a8.993,8.993,0,0,0-7.78-4.409A4.974,4.974,0,0,1,83.523,43.8v-.768L83.5,42.99a11.809,11.809,0,0,0,7.362-10.913Z" transform="translate(-7.067 -7.018)"/><path class="a" d="M123.17,358.471v4.682a.96.96,0,0,1-.965.954H86.987a.96.96,0,0,1-.965-.954v-4.682a8.945,8.945,0,0,1,8.994-8.894,5.153,5.153,0,0,0,.885-.076l.011.056a23.08,23.08,0,0,0,25.415,3.521A8.787,8.787,0,0,1,123.17,358.471Z" transform="translate(-32.715 -308.062)"/><path class="c" d="M363.966,364.9q-.193-.157-.394-.307C363.707,364.69,363.837,364.793,363.966,364.9Z" transform="translate(-276.749 -321.295)"/><path class="d" d="M210.226,303.6a11.84,11.84,0,0,1-9.334,0,7.391,7.391,0,0,0,.135-1.958l.018-.044a11.832,11.832,0,0,0,9.029,0l.018.044A7.389,7.389,0,0,0,210.226,303.6Z" transform="translate(-133.678 -265.792)"/><path class="c" d="M363.572,364.591c.135.1.265.2.394.307Q363.772,364.74,363.572,364.591Z" transform="translate(-276.749 -321.295)"/><path class="c" d="M378.838,379.633c-.035-.048-.07-.1-.107-.142h0C378.768,379.538,378.8,379.585,378.838,379.633Z" transform="translate(-290.1 -334.425)"/><path class="e" d="M77.294,11.585c-1.308,1.268-1.718,1.943-2.955,2.148-1.5.247-8.491.473-7,5.81l.706,2.539a2.9,2.9,0,0,1-1.191,3.184l-2.185,1.472a2.9,2.9,0,0,0-1.175,3.243L64.584,33.6a2.885,2.885,0,0,1-.528,2.654L62.2,38.54a2.88,2.88,0,0,0-.155,3.437l1.787,2.649a2.88,2.88,0,0,1-.149,3.429l-.264.328a3.446,3.446,0,0,0-.736,2.659,1.245,1.245,0,0,1-.277.967,1.27,1.27,0,0,1-1.893.11l-1.468-1.468A3.453,3.453,0,0,1,58.768,46l.264-.328a2.88,2.88,0,0,0,.149-3.429l-1.787-2.649a2.88,2.88,0,0,1,.155-3.437L59.4,33.872a2.885,2.885,0,0,0,.528-2.654L58.84,27.595a2.9,2.9,0,0,1,1.175-3.243L62.2,22.88A2.9,2.9,0,0,0,63.391,19.7l-.706-2.539a4.175,4.175,0,0,1,3.4-5.214l3.6-.6A3.009,3.009,0,0,0,71.3,10.53l1.741-1.706a3.038,3.038,0,0,1,4.232,0,1.913,1.913,0,0,1,.016,2.76Z" transform="translate(-7.066 -7.016)"/><path class="e" d="M150.332,203.576a1.778,1.778,0,0,1-1.507,3.213,11.822,11.822,0,0,1-7.385-9.84.951.951,0,0,1,.389-.853,14.011,14.011,0,0,0,2.421-2.215.932.932,0,0,0-.067.444,11.673,11.673,0,0,0,6.149,9.251Z" transform="translate(-81.393 -170.886)"/><path class="c" d="M378.838,379.633c-.035-.048-.07-.1-.107-.142h0C378.768,379.538,378.8,379.585,378.838,379.633Z" transform="translate(-290.1 -334.425)"/><path class="e" d="M97.083,350.626a.955.955,0,0,1-.369,1.683c-4.943,1.2-7.114,4.672-7.114,8.548v3.251H86.976a.954.954,0,0,1-.954-.954v-4.682a8.894,8.894,0,0,1,8.894-8.894,5.04,5.04,0,0,0,.875-.076l.011.056C96.149,349.869,96.577,350.234,97.083,350.626Z" transform="translate(-32.715 -308.062)"/><path class="b" d="M348.7,384.884v4.682a.954.954,0,0,1-.954.954h-2.624V387.27a8.3,8.3,0,0,0-2.56-6.216,23.621,23.621,0,0,0,4.315-1.562A8.851,8.851,0,0,1,348.7,384.884Z" transform="translate(-258.245 -334.476)"/><path class="d" d="M315.276,353.641a23.625,23.625,0,0,1-4.315,1.562,9.257,9.257,0,0,0-3.046-1.864,1.606,1.606,0,0,1-1.115-2.2,1.449,1.449,0,0,1,1.39-.995,8.9,8.9,0,0,1,7.086,3.5Z" transform="translate(-226.643 -308.576)"/><path class="f" d="M91.377,50.437v5.612a.963.963,0,0,1-1.926,0V50.437a7.955,7.955,0,0,0-8.012-7.906,5.928,5.928,0,0,1-5.086-2.818.943.943,0,0,1,.321-1.305A.97.97,0,0,1,78,38.725a4.012,4.012,0,0,0,3.441,1.906A9.867,9.867,0,0,1,91.377,50.437ZM94.2,32.99a3.8,3.8,0,0,0-.209-4.6l-1.842-2.238a1.938,1.938,0,0,1-.365-1.8l1.089-3.566a3.835,3.835,0,0,0-1.584-4.332L89.127,15.02a1.965,1.965,0,0,1-.828-2.164,3.922,3.922,0,0,0-3.7-4.925l-.957-.04a3.482,3.482,0,0,1-3.311-2.737l-.068-.331a4.009,4.009,0,0,0-5.882-2.606A2.127,2.127,0,0,1,71.883,1.9l-.8-.777a4.075,4.075,0,0,0-5.617,0L63.7,2.82a2.078,2.078,0,0,1-1.116.555l-3.632.592a5.113,5.113,0,0,0-4.2,6.385l.713,2.527a1.928,1.928,0,0,1-.812,2.128l-2.205,1.465a3.8,3.8,0,0,0-1.569,4.292l1.1,3.608a1.9,1.9,0,0,1-.358,1.769l-1.871,2.273a3.766,3.766,0,0,0-.208,4.554l1.8,2.637a1.9,1.9,0,0,1-.1,2.288l-.267.326a4.344,4.344,0,0,0,.357,5.908.967.967,0,0,0,.674.271.95.95,0,0,0,.674-1.629,2.469,2.469,0,0,1-.205-3.358l.267-.326a3.768,3.768,0,0,0,.2-4.543l-1.8-2.637a1.9,1.9,0,0,1,.106-2.293l1.871-2.273a3.783,3.783,0,0,0,.707-3.515l-1.1-3.608a1.921,1.921,0,0,1,.8-2.167l2.205-1.465a3.813,3.813,0,0,0,1.592-4.214l-.713-2.527a3.21,3.21,0,0,1,2.664-4L62.9,5.249a4,4,0,0,0,2.149-1.072l1.757-1.7a2.12,2.12,0,0,1,2.922,0l.8.777a4.083,4.083,0,0,0,4.784.616A2.076,2.076,0,0,1,78.37,5.2l.068.331A5.4,5.4,0,0,0,83.555,9.79l.957.04a2.019,2.019,0,0,1,1.93,2.52A3.851,3.851,0,0,0,88.051,16.6l2.165,1.438a1.956,1.956,0,0,1,.816,2.207l-1.089,3.566a3.817,3.817,0,0,0,.714,3.547L92.5,29.592a1.932,1.932,0,0,1,.108,2.335L90.834,34.52a3.8,3.8,0,0,0,.2,4.585,2.941,2.941,0,0,1,.756,1.344.963.963,0,0,0,1.146.726.95.95,0,0,0,.735-1.131,4.71,4.71,0,0,0-1.139-2.131,1.933,1.933,0,0,1-.1-2.33ZM84.354,45.577a21.772,21.772,0,0,1-19.27-3.712,5.847,5.847,0,0,0,3.167-4.726A12.857,12.857,0,0,0,84.758,25.05c0-.021,0-4.934,0-4.956a9.576,9.576,0,0,0-9.628-9.5h-3.3a8.083,8.083,0,0,0-7.451,4.587c-.725,1.675-.414,2.8-.663,4.119-.409,2.175-2.2,4.239-5.334,6.133a.943.943,0,0,0-.317,1.307.97.97,0,0,0,1.324.313c3.614-2.187,5.707-4.679,6.22-7.406.287-1.523-.018-2.43.54-3.719a6.139,6.139,0,0,1,5.68-3.433h3.3a7.661,7.661,0,0,1,7.7,7.6v4.856a10.979,10.979,0,0,1-20.923,4.477.968.968,0,0,0-1.275-.471.945.945,0,0,0-.477,1.258,12.813,12.813,0,0,0,6.187,6.2v.256a3.988,3.988,0,0,1-4.023,3.96,9.867,9.867,0,0,0-9.938,9.806V56.05a.963.963,0,0,0,1.926,0V50.438a7.955,7.955,0,0,1,8.012-7.906c.177,0,.352-.009.526-.024a23.729,23.729,0,0,0,22.023,4.9.949.949,0,0,0,.669-1.17A.964.964,0,0,0,84.354,45.577Z"/></g></svg>