<svg xmlns="http://www.w3.org/2000/svg" width="35" height="35" viewBox="0 0 35 35"><defs><style>.a{fill:#2d3e9f;}</style></defs><g transform="translate(-0.001 -0.223)"><path class="a" d="M91.221,252.48H72.11a.513.513,0,0,0,0,1.026H91.221a.513.513,0,1,0,0-1.026Z" transform="translate(-66.698 -234.997)"/><path class="a" d="M72.105,201.472h8.778a.513.513,0,0,0,0-1.026H72.105a.513.513,0,0,0,0,1.026Z" transform="translate(-66.693 -186.523)"/><path class="a" d="M91.221,304.512H72.11a.513.513,0,1,0,0,1.026H91.221a.513.513,0,1,0,0-1.026Z" transform="translate(-66.698 -283.469)"/><path class="a" d="M91.221,356.543H72.11a.513.513,0,1,0,0,1.026H91.221a.513.513,0,1,0,0-1.026Z" transform="translate(-66.698 -331.94)"/><path class="a" d="M72.11,408.575a.513.513,0,1,0,0,1.026H87.516a.513.513,0,1,0,0-1.026Z" transform="translate(-66.698 -380.412)"/><path class="a" d="M35,8.536A8.306,8.306,0,0,0,24.052.655,107.406,107.406,0,0,0,11.09.338C9.146.408,5.363,4,4.624,4.72S.206,9.113.133,10.97a173.209,173.209,0,0,0,.413,20.5,3.446,3.446,0,0,0,3.07,3.15,107.307,107.307,0,0,0,11.353.6c3.069,0,6.136-.132,9.184-.395a.513.513,0,0,0-.088-1.022,106.227,106.227,0,0,1-20.34-.2,2.42,2.42,0,0,1-2.157-2.211,172.222,172.222,0,0,1-.428-19.906c2.319-.094,4.67-.266,7-.514a3.446,3.446,0,0,0,3.07-3.15q.034-.426.066-.852a.513.513,0,1,0-1.023-.077q-.032.424-.065.847A2.419,2.419,0,0,1,8.03,9.949c-2.232.238-4.486.406-6.711.5A19.755,19.755,0,0,1,5.339,5.456,19.144,19.144,0,0,1,10.569,1.5c-.048,1.122-.108,2.252-.179,3.369a.513.513,0,1,0,1.023.065c.075-1.191.138-2.4.188-3.59,3.52-.112,7.077-.047,10.607.194A8.311,8.311,0,0,0,28.88,16.557c.034,4.923-.146,9.91-.539,14.833A2.421,2.421,0,0,1,26.18,33.6l-.07.007H26.1a.513.513,0,0,0,.047,1.024l.048,0H26.2l.089-.009a3.446,3.446,0,0,0,3.07-3.15c.4-5.068.585-10.2.539-15.267A8.326,8.326,0,0,0,35,8.536Zm-4.232,6.036-.227-.393a.513.513,0,1,0-.888.513l.227.394a7.221,7.221,0,0,1-2.674.718V14.686a.513.513,0,1,0-1.025,0V15.8a7.221,7.221,0,0,1-2.674-.718l.227-.394a.513.513,0,1,0-.888-.513l-.227.393a7.343,7.343,0,0,1-1.957-1.959l.393-.227a.513.513,0,0,0-.513-.889l-.394.228a7.237,7.237,0,0,1-.717-2.676H20.55a.513.513,0,0,0,0-1.026H19.433a7.238,7.238,0,0,1,.717-2.676l.394.228a.513.513,0,0,0,.513-.889l-.393-.227A7.343,7.343,0,0,1,22.621,2.5l.227.393a.513.513,0,1,0,.888-.513l-.227-.394a7.222,7.222,0,0,1,2.674-.718V2.386a.513.513,0,1,0,1.025,0V1.268a7.221,7.221,0,0,1,2.674.718l-.227.394a.513.513,0,1,0,.888.513l.227-.393a7.344,7.344,0,0,1,1.957,1.959l-.393.227a.513.513,0,1,0,.513.889l.394-.228a7.238,7.238,0,0,1,.717,2.676H32.839a.513.513,0,0,0,0,1.026h1.117a7.237,7.237,0,0,1-.717,2.676l-.394-.228a.513.513,0,0,0-.513.889l.393.227a7.342,7.342,0,0,1-1.957,1.959Z" transform="translate(0)"/><path class="a" d="M320.623,62.617a1.509,1.509,0,0,0-1.507,1.507v1.03H317a1.507,1.507,0,1,0,0,3.014h3.624a1.509,1.509,0,0,0,1.507-1.507V64.124A1.509,1.509,0,0,0,320.623,62.617Zm0,1.026a.481.481,0,0,1,.48.48v2.537a.48.48,0,0,1-.961,0V64.124A.481.481,0,0,1,320.623,63.643Zm-4.1,3.018a.481.481,0,0,1,.48-.48h2.117v.48a1.5,1.5,0,0,0,.079.48H317A.481.481,0,0,1,316.518,66.661Z" transform="translate(-293.928 -58.125)"/></g></svg>