<svg xmlns="http://www.w3.org/2000/svg" width="50" height="50.005" viewBox="0 0 50 50.005"><defs><style>.a{fill:#2d3e9f;}</style></defs><g transform="translate(0 -0.003)"><path class="a" d="M45.52,0H41.933a.733.733,0,0,0,0,1.465h3.428a3.178,3.178,0,0,1,3.174,3.175V7.53H1.466V4.643A3.178,3.178,0,0,1,4.64,1.468H37.561a.733.733,0,0,0,0-1.465H4.481A4.552,4.552,0,0,0,0,4.643V45.368a4.645,4.645,0,0,0,4.639,4.64h6.792a.733.733,0,0,0,0-1.465H7.86V44H19.739v4.541H15.788a.733.733,0,0,0,0,1.465H45.361A4.645,4.645,0,0,0,50,45.368V4.643A4.552,4.552,0,0,0,45.52,0ZM12.353,22.732a2.721,2.721,0,0,1-.76-2.294h4.413c.075,1.387-.572,2.836-2.206,2.836A2.2,2.2,0,0,1,12.353,22.732Zm-.641-3.759a2.133,2.133,0,0,1,.766-1.031,2.239,2.239,0,0,1,1.981-.351,2.2,2.2,0,0,1,1.424,1.382H11.712Zm-.524,7.041a2.611,2.611,0,0,1,.722-1.8,3.7,3.7,0,0,0,3.779,0,2.612,2.612,0,0,1,.722,1.8v.59H11.188v-.59Zm8.551,2.055V42.5H7.86V28.069Zm0-1.465H17.876a4.524,4.524,0,0,0-1.109-3.379,3.675,3.675,0,0,0,.7-2.161V19.706c0-4.761-7.342-4.73-7.342,0v1.358a3.676,3.676,0,0,0,.7,2.161A4.582,4.582,0,0,0,9.723,26.6H7.86V14.115H19.739ZM45.361,48.543H21.2V43.269c0-.006,0-.012,0-.019s0-.012,0-.019V13.383a.732.732,0,0,0-.732-.732H7.128a.732.732,0,0,0-.732.732V43.232c0,.006,0,.012,0,.019s0,.012,0,.019v5.274H4.64a3.178,3.178,0,0,1-3.174-3.175V9h47.07V45.368A3.178,3.178,0,0,1,45.361,48.543Z"/><path class="a" d="M48.83,42.167a.735.735,0,0,0,0-1.47A.735.735,0,0,0,48.83,42.167Z" transform="translate(-43.404 -36.706)"/><path class="a" d="M81.4,42.167a.735.735,0,0,0,0-1.47A.735.735,0,0,0,81.4,42.167Z" transform="translate(-72.784 -36.706)"/><path class="a" d="M113.977,42.167a.735.735,0,0,0,0-1.47A.735.735,0,0,0,113.977,42.167Z" transform="translate(-102.207 -36.706)"/><path class="a" d="M274.254,147.5H257.065a.735.735,0,0,0,0,1.47h17.189A.735.735,0,0,0,274.254,147.5Z" transform="translate(-231.407 -133.096)"/><path class="a" d="M386.1,188.151h-5.037a.735.735,0,0,0,0,1.47H386.1A.735.735,0,0,0,386.1,188.151Z" transform="translate(-343.254 -169.774)"/><path class="a" d="M257.065,189.621h8.595a.735.735,0,0,0,0-1.47h-8.595A.735.735,0,0,0,257.065,189.621Z" transform="translate(-231.34 -169.774)"/><path class="a" d="M274.254,228.8H257.065a.735.735,0,0,0,0,1.47h17.189A.735.735,0,0,0,274.254,228.8Z" transform="translate(-231.407 -206.454)"/><path class="a" d="M353.358,269.447h-8.595a.735.735,0,0,0,0,1.47h8.595A.735.735,0,0,0,353.358,269.447Z" transform="translate(-310.51 -243.131)"/><path class="a" d="M257.065,270.917h4.874a.735.735,0,0,0,0-1.47h-4.874A.735.735,0,0,0,257.065,270.917Z" transform="translate(-231.331 -243.131)"/><path class="a" d="M257.065,311.566h11.074a.735.735,0,0,0,0-1.47H257.065A.735.735,0,0,0,257.065,311.566Z" transform="translate(-231.347 -279.811)"/><path class="a" d="M274.254,447.257H257.065a.735.735,0,0,0,0,1.47h17.189A.735.735,0,0,0,274.254,447.257Z" transform="translate(-231.407 -403.594)"/><path class="a" d="M258.632,358.382a3.445,3.445,0,1,0-3.445-3.445A3.449,3.449,0,0,0,258.632,358.382Zm0-5.42a1.975,1.975,0,1,1-1.975,1.975A1.977,1.977,0,0,1,258.632,352.962Z" transform="translate(-230.281 -317.179)"/><path class="a" d="M340.917,354.937a3.445,3.445,0,1,0,3.445-3.445A3.449,3.449,0,0,0,340.917,354.937Zm5.42,0a1.975,1.975,0,1,1-1.975-1.975A1.977,1.977,0,0,1,346.337,354.937Z" transform="translate(-307.643 -317.179)"/></g></svg>