<svg xmlns="http://www.w3.org/2000/svg" width="24.99" height="25" viewBox="0 0 24.99 25"><defs><style>.a{fill:#2d3e9f;}</style></defs><g transform="translate(-0.103)"><path class="a" d="M177.4,197.04h2.819a1.146,1.146,0,0,0,1.145-1.145v-1.974a1.145,1.145,0,1,0-2.29,0v.829H177.4a1.145,1.145,0,1,0,0,2.29Zm2.819-3.52a.4.4,0,0,1,.4.4V195.9a.4.4,0,1,1-.8,0v-1.974A.4.4,0,0,1,180.221,193.521Zm-2.819,1.974h1.675v.4a1.14,1.14,0,0,0,.073.4H177.4a.4.4,0,1,1,0-.8Z" transform="translate(-167.582 -183.389)"/><path class="a" d="M37.568,41.82H33.575a.372.372,0,0,0,0,.744h3.994a.372.372,0,1,0,0-.744Z" transform="translate(-31.459 -39.747)"/><path class="a" d="M35.909,71H33.575a.372.372,0,0,0,0,.744h2.335a.372.372,0,1,0,0-.744Z" transform="translate(-31.459 -67.481)"/><path class="a" d="M25,2.818A1.343,1.343,0,0,0,23.751,1.6a40.768,40.768,0,0,0-5.217,0,1.343,1.343,0,0,0-1.253,1.214,18.762,18.762,0,0,0,0,3.649,1.343,1.343,0,0,0,.533.948l-.746.559a6.334,6.334,0,0,0-8.813-.092L6.3,6.18l.361-.02A1.342,1.342,0,0,0,7.916,4.946a18.744,18.744,0,0,0,0-3.649A1.342,1.342,0,0,0,6.662.084a40.768,40.768,0,0,0-5.217,0A1.342,1.342,0,0,0,.192,1.3a18.743,18.743,0,0,0,0,3.649A1.342,1.342,0,0,0,1.446,6.16c.865.056,1.737.084,2.608.084q.592,0,1.184-.018L7.752,8.416a6.332,6.332,0,0,0,.111,8.275l-1.516,1.4a45.94,45.94,0,0,0-4.768.058A1.466,1.466,0,0,0,.21,19.474a21.078,21.078,0,0,0,0,4.105,1.467,1.467,0,0,0,1.369,1.326c.975.063,1.956.094,2.938.094s1.963-.031,2.938-.094a1.468,1.468,0,0,0,1.37-1.327c.066-.677.1-1.359.1-2.029a.366.366,0,0,0-.366-.367h0a.366.366,0,0,0-.366.366c0,.646-.034,1.306-.1,1.958a.738.738,0,0,1-.688.667,45.18,45.18,0,0,1-5.781,0,.737.737,0,0,1-.687-.667,20.336,20.336,0,0,1,0-3.962.736.736,0,0,1,.687-.666,45.176,45.176,0,0,1,5.782,0,.737.737,0,0,1,.687.666c.019.193.034.384.047.566a.366.366,0,0,0,.731-.05c-.013-.189-.029-.387-.049-.587a1.467,1.467,0,0,0-1.37-1.326l-.084-.005,1.009-.932a6.332,6.332,0,0,0,8.177.246l1.271,1.307a1.071,1.071,0,0,0-.388.728,13.614,13.614,0,0,0,0,2.651,1.069,1.069,0,0,0,1,.967c.626.04,1.257.06,1.887.06s1.261-.02,1.887-.06a1.069,1.069,0,0,0,1-.967,13.613,13.613,0,0,0,0-2.651,1.069,1.069,0,0,0-1-.967,29.5,29.5,0,0,0-3.605-.01l-1.5-1.546a6.333,6.333,0,0,0,.457-8.448l1.11-.831c.818.05,1.65.076,2.476.076a.366.366,0,1,0,0-.733c-.856,0-1.719-.028-2.564-.082A.613.613,0,0,1,18.01,6.4a18.032,18.032,0,0,1,0-3.506.613.613,0,0,1,.571-.554,40.021,40.021,0,0,1,5.122,0,.613.613,0,0,1,.572.554,18.025,18.025,0,0,1,0,3.506.613.613,0,0,1-.571.554c-.379.024-.752.043-1.109.056a.366.366,0,1,0,.026.732c.364-.013.745-.032,1.131-.057A1.343,1.343,0,0,0,25,6.467a18.761,18.761,0,0,0,0-3.649ZM1.493,5.429a.612.612,0,0,1-.571-.554,18.024,18.024,0,0,1,0-3.506A.612.612,0,0,1,1.493.815C2.343.76,3.2.733,4.054.733S5.766.76,6.615.815a.612.612,0,0,1,.571.554,18.024,18.024,0,0,1,0,3.506.612.612,0,0,1-.571.554,40.041,40.041,0,0,1-5.123,0ZM7.948,15.606l.326-.188a.366.366,0,0,0-.366-.634l-.327.189a5.57,5.57,0,0,1-.568-2.116H7.9a.366.366,0,1,0,0-.733H7.013a5.57,5.57,0,0,1,.568-2.116l.327.189a.366.366,0,0,0,.366-.634l-.326-.188A5.659,5.659,0,0,1,9.5,7.824l.188.326a.366.366,0,0,0,.635-.366l-.189-.327a5.571,5.571,0,0,1,2.116-.568v.886a.366.366,0,1,0,.733,0V6.889a5.571,5.571,0,0,1,2.116.568l-.189.327a.366.366,0,1,0,.635.366l.188-.326a5.66,5.66,0,0,1,1.549,1.549l-.326.188a.366.366,0,1,0,.366.635l.327-.189a5.571,5.571,0,0,1,.568,2.116h-.886a.366.366,0,1,0,0,.733h.886a5.571,5.571,0,0,1-.568,2.116l-.327-.189a.366.366,0,1,0-.366.635l.326.188a5.658,5.658,0,0,1-1.549,1.549l-.188-.326a.366.366,0,0,0-.635.366l.189.327a5.57,5.57,0,0,1-2.116.568V17.2a.366.366,0,0,0-.733,0v.886a5.571,5.571,0,0,1-2.116-.568l.189-.327a.366.366,0,0,0-.635-.366l-.188.326a5.659,5.659,0,0,1-1.549-1.549ZM20.325,19.2c.615,0,1.23.02,1.84.059a.339.339,0,0,1,.317.307,12.886,12.886,0,0,1,0,2.508.339.339,0,0,1-.317.307,28.794,28.794,0,0,1-3.681,0,.339.339,0,0,1-.317-.307,12.886,12.886,0,0,1,0-2.508.339.339,0,0,1,.317-.307C19.1,19.216,19.71,19.2,20.325,19.2Z" transform="translate(0 0)"/><path class="a" d="M387.793,73.329a.372.372,0,0,0-.372-.372h-3.994a.372.372,0,1,0,0,.744h3.994A.372.372,0,0,0,387.793,73.329Z" transform="translate(-364.341 -69.34)"/><path class="a" d="M383.427,102.138a.372.372,0,0,0,0,.744h2.335a.372.372,0,1,0,0-.744Z" transform="translate(-364.34 -97.151)"/><path class="a" d="M383.427,404.837h2.335a.372.372,0,1,0,0-.744h-2.335a.372.372,0,0,0,0,.744Z" transform="translate(-364.34 -384.364)"/><path class="a" d="M383.427,434.018h1.365a.372.372,0,1,0,0-.744h-1.365a.372.372,0,0,0,0,.744Z" transform="translate(-364.271 -412.168)"/><path class="a" d="M47.423,433.587a.372.372,0,0,0-.372-.372H43.058a.372.372,0,0,0,0,.744h3.994A.372.372,0,0,0,47.423,433.587Z" transform="translate(-40.472 -412.112)"/><path class="a" d="M47.052,403.031H43.058a.372.372,0,1,0,0,.744h3.994a.372.372,0,0,0,0-.744Z" transform="translate(-40.472 -383.354)"/><path class="a" d="M43.058,463.4a.372.372,0,1,0,0,.744h2.335a.372.372,0,1,0,0-.744Z" transform="translate(-40.472 -440.799)"/></g></svg>