<svg xmlns="http://www.w3.org/2000/svg" width="30" height="25" viewBox="0 0 30 25"><defs><style>.a{fill:#2d3e9f;}</style></defs><g transform="translate(-1 -2.499)"><path class="a" d="M28.766,23.2V4.843A2.394,2.394,0,0,0,26.332,2.5H5.671A2.394,2.394,0,0,0,3.236,4.843V23.2H1v.3a4.081,4.081,0,0,0,4.156,4h21.69A4.085,4.085,0,0,0,31,23.5v-.3ZM3.861,4.843A1.779,1.779,0,0,1,5.671,3.1H26.332a1.779,1.779,0,0,1,1.81,1.743V23.149H3.861ZM26.847,26.9H5.156a3.483,3.483,0,0,1-3.518-3.1H30.361A3.485,3.485,0,0,1,26.847,26.9Z" transform="translate(0)"/><path class="a" d="M46.571,77.054A1.067,1.067,0,1,0,45.5,75.987,1.068,1.068,0,0,0,46.571,77.054Zm0-1.524a.457.457,0,1,1-.457.457A.458.458,0,0,1,46.571,75.53Z" transform="translate(-30.569 -50.668)"/><path class="a" d="M57.366,77.42h3.241v.61H57.366Z" transform="translate(-38.698 -52.406)"/><path class="a" d="M30.007,77.42h3.241v.61H30.007Z" transform="translate(-19.914 -52.406)"/><path class="a" d="M43.046,24.03h-.054v-.992a2.809,2.809,0,0,0-2.806-2.806h-.062a2.809,2.809,0,0,0-2.806,2.806v.992h-.054a.99.99,0,0,0-.988.989V28.94a.989.989,0,0,0,.988.988h5.783a.99.99,0,0,0,.989-.988V25.019a.99.99,0,0,0-.989-.989Zm-5.119-.992a2.2,2.2,0,0,1,2.2-2.2h.062a2.2,2.2,0,0,1,2.2,2.2v.992H37.927Zm5.5,5.9a.379.379,0,0,1-.379.379H37.263a.379.379,0,0,1-.379-.379V25.019a.379.379,0,0,1,.379-.379h5.783a.379.379,0,0,1,.379.379Z" transform="translate(-24.153 -12.439)"/><path class="a" d="M28.691,8.057a9.269,9.269,0,0,0-9.437,9.068,9.269,9.269,0,0,0,9.437,9.068,9.269,9.269,0,0,0,9.438-9.068A9.269,9.269,0,0,0,28.691,8.057Zm4.671,16.232-.719-1.2-.2.109-.162-.261c-.173.1-.353.192-.534.276l.276.549c.074-.035.145-.076.219-.113l.567.944a9.019,9.019,0,0,1-3.805.98V24.192h-.179l-.005-.306h-.133q-.24,0-.475-.015l-.042.608c.066,0,.133,0,.2.006v1.089a9.019,9.019,0,0,1-3.805-.98l.72-1.2-.116-.064.152-.268c-.176-.092-.351-.194-.52-.3l-.351.508c.042.027.088.05.131.076l-.566.941a8.7,8.7,0,0,1-2.785-2.676l1.245-.691-.044-.073.272-.162c-.106-.164-.206-.335-.3-.508l-.566.276c.016.03.035.058.051.088l-.98.544A8.145,8.145,0,0,1,19.9,17.43h1.44v-.04l.322-.011q0-.126,0-.254,0-.166.008-.33l-.634-.029c0,.018,0,.036,0,.054H19.9a8.145,8.145,0,0,1,1.02-3.656c.374.212,1.146.645,1.531.839.093-.172.2-.342.3-.5l-1.516-.861A8.7,8.7,0,0,1,24.02,9.961l.564.939c-.018.011-.038.021-.056.032l.345.512c.169-.1.345-.2.523-.3l-.15-.272.043-.024-.72-1.2a9.018,9.018,0,0,1,3.805-.98V9.763c-.038,0-.076,0-.114,0l.035.609c.2-.011.406-.013.607-.008l.01-.308h.1V8.674a9.019,9.019,0,0,1,3.805.98l-.566.943c-.048-.024-.093-.052-.142-.075l-.283.546c.181.086.36.181.531.282l.166-.261.123.068.719-1.2a8.7,8.7,0,0,1,2.785,2.676l-.981.544c-.037-.057-.071-.116-.109-.171l-.526.341c.113.16.219.328.317.5l.277-.148.094.156,1.247-.692a8.145,8.145,0,0,1,1.02,3.656H36.352c0-.083,0-.166-.01-.247l-.633.045q.019.251.019.507c0,.194-.009.39-.026.583l.632.052c.01-.109.01-.22.015-.33h1.136a8.145,8.145,0,0,1-1.02,3.656l-1.247-.692-.136.226-.275-.151c-.1.167-.208.334-.323.494l.522.346c.056-.078.1-.161.158-.241l.981.544a8.7,8.7,0,0,1-2.785,2.676Z" transform="translate(-12.69 -3.864)"/><path class="a" d="M25.605,40.547,25,40.621c.026.209.061.42.1.627l.6-.126c-.04-.189-.072-.383-.1-.575Z" transform="translate(-16.495 -26.602)"/><path class="a" d="M25.741,32.635l-.595-.133c-.046.206-.084.416-.112.626l.6.081C25.665,33.017,25.7,32.824,25.741,32.635Z" transform="translate(-16.519 -20.978)"/><path class="a" d="M25.865,44.462c.061.2.133.4.211.6l.566-.228c-.072-.179-.138-.364-.194-.549Z" transform="translate(-17.09 -29.216)"/><path class="a" d="M30.642,21.934l-.45-.411c-.142.156-.279.32-.408.488l.484.37C30.386,22.228,30.512,22.077,30.642,21.934Z" transform="translate(-19.782 -13.302)"/><path class="a" d="M25.945,29.127l.581.184c.058-.184.126-.368.2-.548l-.563-.234C26.082,28.726,26.009,28.926,25.945,29.127Z" transform="translate(-17.145 -18.201)"/><path class="a" d="M70.457,42.185l.589.156c.054-.2.1-.413.135-.621l-.6-.1C70.548,41.807,70.506,42,70.457,42.185Z" transform="translate(-47.738 -27.35)"/><path class="a" d="M30.106,51.075l-.488.365c.126.169.261.334.4.492l.455-.405C30.346,51.381,30.222,51.229,30.106,51.075Z" transform="translate(-19.668 -33.964)"/><path class="a" d="M69.96,45.516l-.574-.206c-.065.182-.14.363-.221.54l.554.255C69.807,45.912,69.888,45.714,69.96,45.516Z" transform="translate(-46.849 -29.932)"/><path class="a" d="M70.636,32.6l.6-.1c-.034-.209-.077-.418-.128-.622l-.591.149c.047.187.087.379.118.571Z" transform="translate(-47.78 -20.544)"/><path class="a" d="M70.058,28.537c-.069-.2-.148-.4-.234-.591l-.557.249c.079.177.151.359.214.541Z" transform="translate(-46.92 -17.792)"/><path class="a" d="M39.308,58.7c.194.085.393.162.593.23l.2-.577c-.183-.062-.366-.133-.544-.211Z" transform="translate(-26.329 -38.903)"/><path class="a" d="M51.331,59.678l.063.606c.21-.022.422-.053.628-.093l-.115-.6C51.717,59.629,51.523,59.658,51.331,59.678Z" transform="translate(-34.593 -39.918)"/><path class="a" d="M55.082,58.731l.166.586c.2-.057.4-.125.6-.2l-.217-.57C55.453,58.617,55.267,58.679,55.082,58.731Z" transform="translate(-37.17 -39.189)"/><path class="a" d="M43.257,59.955c.2.05.414.091.623.124l.093-.6c-.192-.029-.384-.068-.572-.113Z" transform="translate(-29.043 -39.758)"/><path class="a" d="M61.935,55.016l.355.5c.171-.123.34-.255.5-.393l-.4-.463C62.246,54.782,62.092,54.9,61.935,55.016Z" transform="translate(-41.878 -36.468)"/><path class="a" d="M64.836,52.36l.435.427c.147-.15.291-.309.426-.472l-.47-.388C65.1,52.077,64.972,52.223,64.836,52.36Z" transform="translate(-43.873 -34.56)"/><path class="a" d="M40.343,15.385l-.189-.58c-.2.065-.4.14-.595.223l.238.561C39.976,15.514,40.16,15.445,40.343,15.385Z" transform="translate(-26.502 -8.556)"/><path class="a" d="M44.231,14.467l-.086-.6c-.209.03-.42.069-.624.117l.138.594C43.846,14.53,44.039,14.494,44.231,14.467Z" transform="translate(-29.225 -7.901)"/><path class="a" d="M63,18.714c-.158-.139-.325-.273-.5-.4l-.361.491c.156.115.309.238.454.365Z" transform="translate(-42.019 -11.059)"/><path class="a" d="M65.873,21.539c-.132-.164-.273-.324-.42-.477l-.44.422c.134.14.264.287.385.437Z" transform="translate(-43.994 -12.979)"/><path class="a" d="M32.388,54.372c.153.145.314.285.48.417l.38-.477c-.152-.121-.3-.249-.44-.382Z" transform="translate(-21.572 -35.96)"/><path class="a" d="M32.59,19.106l.414.448c.142-.131.291-.258.445-.377l-.374-.481C32.907,18.826,32.744,18.964,32.59,19.106Z" transform="translate(-21.711 -11.325)"/><path class="a" d="M56.095,14.823c-.2-.077-.4-.147-.6-.207l-.173.584c.185.055.371.119.551.19Z" transform="translate(-37.334 -8.424)"/><path class="a" d="M52.274,13.883c-.207-.042-.418-.076-.627-.1l-.07.605c.192.022.385.053.576.092Z" transform="translate(-34.762 -7.845)"/><path class="a" d="M23.651,65.557h.61v.61h-.61Z" transform="translate(-15.569 -44.087)"/><path class="a" d="M19.651,65.557h.61v.61h-.61Z" transform="translate(-12.82 -44.087)"/><path class="a" d="M15.651,65.557h.61v.61h-.61Z" transform="translate(-10.185 -44.087)"/><path class="a" d="M17.938,9.873h.61v.61h-.61Z" transform="translate(-11.775 -5.127)"/><path class="a" d="M13.938,9.873h.61v.61h-.61Z" transform="translate(-8.995 -5.127)"/><path class="a" d="M21.938,9.873h.61v.61h-.61Z" transform="translate(-14.391 -5.127)"/><path class="a" d="M75.773,65.385h.61v.61h-.61Z" transform="translate(-51.394 -43.967)"/><path class="a" d="M83.773,65.385h.61v.61h-.61Z" transform="translate(-56.805 -43.967)"/><path class="a" d="M79.773,65.385h.61v.61h-.61Z" transform="translate(-54.024 -43.967)"/><path class="a" d="M82.061,9.7h.61v.61h-.61Z" transform="translate(-55.614 -5.007)"/><path class="a" d="M74.061,9.7h.61v.61h-.61Z" transform="translate(-50.217 -5.007)"/><path class="a" d="M78.061,9.7h.61v.61h-.61Z" transform="translate(-52.834 -5.007)"/><path class="a" d="M46.566,36.943a1.066,1.066,0,0,0-.3,2.088v.98h.61v-.98a1.066,1.066,0,0,0-.305-2.088Zm0,1.528a.459.459,0,1,1,.459-.459A.46.46,0,0,1,46.566,38.47Z" transform="translate(-30.565 -24.097)"/></g></svg>