<svg xmlns="http://www.w3.org/2000/svg" width="54.981" height="60.002" viewBox="0 0 54.981 60.002"><defs><style>.a{fill:#2d3e9f;}</style></defs><g transform="translate(-21.422)"><g transform="translate(33.66 23.176)"><path class="a" d="M135.672,208.062c1.4-.657,2.419-2.419,2.419-5.017,0-3.882-2.359-5.285-5.7-5.285-4.838,0-6.062,3.135-6.062,4.927,0,.985.239,1.284,1.314,1.284.866,0,1.194-.448,1.194-1.1,0-1.254.687-2.867,3.494-2.867,2.24,0,3.345,1.075,3.345,3.494,0,2.867-1.344,3.583-3.464,3.583-.627,0-.866.537-.866,1.045,0,.537.239,1.045.866,1.045,2.419,0,4,1.045,4,3.643v.567c0,2.867-1.374,4.121-4,4.121-2.9,0-3.912-1.7-3.912-2.986,0-.627-.269-.985-1.284-.985-.836,0-1.165.239-1.165,1.165,0,2.269,1.941,5.076,6.361,5.076,3.583,0,6.51-1.732,6.51-6.39v-.567A4.689,4.689,0,0,0,135.672,208.062Z" transform="translate(-125.847 -197.76)"/></g><g transform="translate(49.367 23.176)"><path class="a" d="M266.3,197.761c-3.613,0-6.42,1.762-6.42,6.51v8.988c0,4.748,2.807,6.51,6.42,6.51s6.45-1.762,6.45-6.51v-8.988C272.745,199.523,269.908,197.761,266.3,197.761Zm3.942,15.5c0,2.9-1.493,4.24-3.942,4.24s-3.912-1.344-3.912-4.24v-8.988c0-2.9,1.463-4.24,3.912-4.24s3.942,1.344,3.942,4.24Z" transform="translate(-259.875 -197.761)"/></g><g transform="translate(21.422)"><path class="a" d="M73.513,5.127c-.07-.017-.14-.032-.211-.045s-.16-.027-.242-.036-.159-.017-.24-.021q-.1,0-.194,0h-2.02V3.3a3.3,3.3,0,1,0-6.593,0V5.021H58.341V3.3a3.3,3.3,0,1,0-6.593,0V5.021H46.077V3.3a3.3,3.3,0,1,0-6.593,0V5.021H33.813V3.3a3.3,3.3,0,1,0-6.594,0V5.021H25.2c-.065,0-.13,0-.194,0A3.784,3.784,0,0,0,21.422,8.8h0V48.288a.878.878,0,0,0,1.757,0v-31h2.015V51.973a3.283,3.283,0,0,0,3.279,3.279H69.352a3.283,3.283,0,0,0,3.279-3.279V17.291h2.015V56.225a2.023,2.023,0,0,1-2.021,2.021H25.2a2.023,2.023,0,0,1-2.021-2.021V52.4a.878.878,0,0,0-1.757,0v3.822A3.782,3.782,0,0,0,25.2,60H72.626A3.782,3.782,0,0,0,76.4,56.225V8.8h0A3.784,3.784,0,0,0,73.513,5.127ZM65.769,3.3a1.54,1.54,0,1,1,3.08,0V8.5a1.54,1.54,0,0,1-3.08,0ZM53.5,3.3a1.54,1.54,0,1,1,3.08,0V8.5a1.54,1.54,0,0,1-3.08,0ZM41.24,3.3a1.54,1.54,0,1,1,3.08,0V8.5a1.54,1.54,0,0,1-3.08,0ZM30.516,1.757a1.542,1.542,0,0,1,1.54,1.54V8.5a1.54,1.54,0,1,1-3.08,0V3.3h0A1.542,1.542,0,0,1,30.516,1.757Zm44.13,13.777H62.057a.878.878,0,1,0,0,1.757h8.818V51.973A1.524,1.524,0,0,1,69.352,53.5H28.473a1.524,1.524,0,0,1-1.522-1.522V17.291H57.969a.878.878,0,0,0,0-1.757H23.179V8.8A2.028,2.028,0,0,1,25.2,6.778h2.02V8.5a3.3,3.3,0,0,0,6.594,0V6.778h5.671V8.5a3.3,3.3,0,1,0,6.593,0V6.778h5.671V8.5a3.3,3.3,0,1,0,6.593,0V6.778h5.671V8.5a3.3,3.3,0,0,0,6.594,0V6.778h2.02A2.028,2.028,0,0,1,74.646,8.8Z" transform="translate(-21.422)"/></g></g></svg>