<svg xmlns="http://www.w3.org/2000/svg" width="30" height="35" viewBox="0 0 30 35"><defs><style>.a{fill:#2d3e9f;}</style></defs><g transform="translate(-45.113 0)"><path class="a" d="M45.94,28.438h.032a.521.521,0,0,0,.5-.542A155.745,155.745,0,0,1,46.72,5.4a2.366,2.366,0,0,1,2.158-2.116c.561-.057,1.128-.11,1.692-.158v.889a1.8,1.8,0,0,0,3.607,0V2.876c.515-.028,1.035-.052,1.556-.073V4.015a1.8,1.8,0,0,0,3.607,0V2.72c.518,0,1.038,0,1.556,0v1.3a1.8,1.8,0,0,0,3.607,0V2.8c.521.021,1.041.045,1.556.073V4.015a1.8,1.8,0,0,0,3.607,0V3.127c.563.048,1.13.1,1.692.158A2.366,2.366,0,0,1,73.518,5.4c.087,1.04.165,2.108.233,3.176a.525.525,0,0,0,.532.482h.033a.52.52,0,0,0,.5-.543c-.068-1.074-.147-2.149-.234-3.2a3.412,3.412,0,0,0-3.11-3.054c-.6-.061-1.2-.117-1.8-.168V1.732a1.8,1.8,0,0,0-3.607,0v.116c-.515-.027-1.035-.051-1.556-.072V1.732A1.805,1.805,0,0,0,60.9,1.695c-.519,0-1.04,0-1.558,0a1.805,1.805,0,0,0-3.606.038v.045c-.521.02-1.041.044-1.556.072V1.732a1.8,1.8,0,0,0-3.607,0V2.1c-.6.051-1.207.107-1.8.168a3.413,3.413,0,0,0-3.111,3.054,156.751,156.751,0,0,0-.249,22.637.525.525,0,0,0,.532.482ZM67.128,1.732a.737.737,0,0,1,1.472,0V4.015a.737.737,0,0,1-1.472,0Zm-5.163,0a.737.737,0,0,1,1.472,0V4.015a.737.737,0,0,1-1.472,0Zm-5.163,0a.737.737,0,0,1,1.472,0V4.015a.737.737,0,0,1-1.472,0Zm-5.163,0a.737.737,0,0,1,1.472,0V4.015a.737.737,0,0,1-1.472,0Z" transform="translate(0 0)"/><path class="a" d="M80.587,147.308a.534.534,0,0,0-1.066.05,155.394,155.394,0,0,1-.345,20.719,2.366,2.366,0,0,1-2.159,2.115,112.093,112.093,0,0,1-22.485,0,2.366,2.366,0,0,1-2.159-2.116c-.034-.408-.069-.841-.108-1.364a.527.527,0,0,0-.571-.475.52.52,0,0,0-.494.548c.039.526.074.962.109,1.373a3.413,3.413,0,0,0,3.111,3.053,113.212,113.212,0,0,0,22.708,0,3.412,3.412,0,0,0,3.111-3.053,156.378,156.378,0,0,0,.348-20.851Z" transform="translate(-5.67 -136.783)"/><path class="a" d="M188.609,139.486H173.363a.513.513,0,0,0,0,1.025h15.247a.513.513,0,1,0,0-1.025Z" transform="translate(-117.836 -129.95)"/><path class="a" d="M102.609,139.486H100.3a.513.513,0,0,0,0,1.025h2.311a.513.513,0,0,0,0-1.025Z" transform="translate(-50.935 -129.95)"/><path class="a" d="M117.71,105.234v-.926a.513.513,0,1,0-1.025,0v.926a.513.513,0,1,0,1.025,0Z" transform="translate(-66.473 -96.7)"/><path class="a" d="M188.609,210.773H173.363a.513.513,0,0,0,0,1.025h15.247a.513.513,0,1,0,0-1.025Z" transform="translate(-117.836 -196.363)"/><path class="a" d="M102.609,210.773H100.3a.513.513,0,1,0,0,1.025h2.311a.513.513,0,1,0,0-1.025Z" transform="translate(-50.935 -196.363)"/><path class="a" d="M117.71,176.521V175.6a.513.513,0,0,0-1.025,0v.926a.513.513,0,1,0,1.025,0Z" transform="translate(-66.473 -163.113)"/><path class="a" d="M188.609,282.06H173.363a.513.513,0,1,0,0,1.025h15.247a.513.513,0,1,0,0-1.025Z" transform="translate(-117.836 -262.777)"/><path class="a" d="M102.609,282.06H100.3a.513.513,0,1,0,0,1.025h2.311a.513.513,0,1,0,0-1.025Z" transform="translate(-50.935 -262.777)"/><path class="a" d="M117.71,247.809v-.925a.513.513,0,0,0-1.025,0v.925a.513.513,0,1,0,1.025,0Z" transform="translate(-66.473 -229.528)"/><path class="a" d="M188.609,353.347H173.363a.513.513,0,1,0,0,1.025h15.247a.513.513,0,1,0,0-1.025Z" transform="translate(-117.836 -329.19)"/><path class="a" d="M102.609,353.347H100.3a.513.513,0,1,0,0,1.025h2.311a.513.513,0,1,0,0-1.025Z" transform="translate(-50.935 -329.19)"/><path class="a" d="M117.71,319.1v-.925a.513.513,0,1,0-1.025,0v.925a.513.513,0,0,0,1.025,0Z" transform="translate(-66.473 -295.94)"/><path class="a" d="M188.609,424.633H173.363a.513.513,0,0,0,0,1.025h15.247a.513.513,0,1,0,0-1.025Z" transform="translate(-117.836 -395.603)"/><path class="a" d="M99.786,425.146a.513.513,0,0,0,.513.513h2.311a.513.513,0,1,0,0-1.025H100.3A.513.513,0,0,0,99.786,425.146Z" transform="translate(-50.935 -395.603)"/><path class="a" d="M117.71,390.381v-.926a.513.513,0,0,0-1.025,0v.926a.513.513,0,1,0,1.025,0Z" transform="translate(-66.473 -362.353)"/></g></svg>