<svg xmlns="http://www.w3.org/2000/svg" width="17" height="25" viewBox="0 0 17 25"><defs><style>.a{fill:#2d3e9f;}</style></defs><g transform="translate(-19.5)"><path class="a" d="M31.628,8.944a5.177,5.177,0,1,0-7.256,0A8.278,8.278,0,0,0,19.5,16.5V18.95a.4.4,0,0,0,.4.4h1.862v.13a.37.37,0,0,0,0,.042.812.812,0,0,0,.787.734h.541a4.646,4.646,0,0,0,.494,1.157l-.377.35a.775.775,0,0,0-.038,1.088l.019.019.739.709a.8.8,0,0,0,1.076.036l.015-.013.4-.373a4.9,4.9,0,0,0,1.223.5v.5a.369.369,0,0,0,0,.042.812.812,0,0,0,.787.734h1.051l.038,0a.81.81,0,0,0,.751-.775v-.5a5.034,5.034,0,0,0,1.234-.489l.386.382a.805.805,0,0,0,1.076.036l.02-.018.739-.709a.778.778,0,0,0,.029-1.1l-.356-.364a4.533,4.533,0,0,0,.5-1.152h.541l.038,0a.81.81,0,0,0,.751-.775v-.186H36.1a.4.4,0,0,0,.4-.4V16.5a8.278,8.278,0,0,0-4.872-7.554ZM23.623,5.223A4.377,4.377,0,1,1,28,9.639,4.4,4.4,0,0,1,23.623,5.223ZM33.438,19.5l-.017.006h-.828a.4.4,0,0,0-.392.325,3.74,3.74,0,0,1-.633,1.448.406.406,0,0,0,.04.518l.552.565-.707.675-.6-.6a.4.4,0,0,0-.5-.049,4.2,4.2,0,0,1-1.545.612.4.4,0,0,0-.328.4v.784l-.018.007-1,.005a.042.042,0,0,1-.008-.011V23.4a.4.4,0,0,0-.33-.4,4.122,4.122,0,0,1-1.526-.613.4.4,0,0,0-.488.042L24.481,23l-.7-.669.6-.553a.405.405,0,0,0,.052-.534,3.806,3.806,0,0,1-.632-1.467.4.4,0,0,0-.392-.323l-.837.005a.042.042,0,0,1-.008-.011v-.935l.017-.006h.828a.4.4,0,0,0,.392-.325,3.74,3.74,0,0,1,.633-1.448.405.405,0,0,0-.045-.522l-.566-.561.706-.674.6.6a.4.4,0,0,0,.5.049,4.2,4.2,0,0,1,1.545-.612A.4.4,0,0,0,27.5,14.6l-.019-.813.017-.006,1.011-.011v.821a.4.4,0,0,0,.33.4,4.126,4.126,0,0,1,1.527.613.4.4,0,0,0,.488-.042L31.479,15l.717.687-.6.553a.405.405,0,0,0-.052.534,3.807,3.807,0,0,1,.632,1.467.4.4,0,0,0,.392.323h.865V19.5Zm2.262-.956H34.238v-.015a.776.776,0,0,0-.809-.777h-.541a4.638,4.638,0,0,0-.494-1.157l.377-.35a.775.775,0,0,0,.038-1.088l-.019-.019-.759-.728a.8.8,0,0,0-1.077-.036l-.015.013-.4.373a4.9,4.9,0,0,0-1.223-.5v-.5a.8.8,0,0,0-.789-.795H27.475l-.038,0a.811.811,0,0,0-.751.784l.012.526a5.023,5.023,0,0,0-1.227.488l-.386-.382a.8.8,0,0,0-1.077-.036l-.02.018-.739.709a.775.775,0,0,0-.038,1.087l.014.015.368.364a4.523,4.523,0,0,0-.5,1.147h-.541l-.038,0a.81.81,0,0,0-.751.775v.071H20.3V16.5a7.465,7.465,0,0,1,4.771-6.972,5.125,5.125,0,0,0,5.858,0A7.465,7.465,0,0,1,35.7,16.5Z"/><path class="a" d="M51.01,81.047A2.655,2.655,0,1,0,53.778,83.7,2.715,2.715,0,0,0,51.01,81.047Zm0,4.5A1.851,1.851,0,1,1,52.973,83.7,1.911,1.911,0,0,1,51.01,85.548Z" transform="translate(-23.01 -64.689)"/></g></svg>