<svg xmlns="http://www.w3.org/2000/svg" width="60.001" height="60.001" viewBox="0 0 60.001 60.001"><defs><style>.a{fill:#2d3e9f;}</style></defs><path class="a" d="M192.392,319.049a5.93,5.93,0,0,0-2.988-.3,2.6,2.6,0,0,0-2.111,1.58c-.54,1.535.853,3.377,3.172,4.193a6.426,6.426,0,0,0,2.111.378,4.794,4.794,0,0,0,.877-.078,2.371,2.371,0,0,0,1.456-4.134A5.931,5.931,0,0,0,192.392,319.049Zm1.514,3.609c-.068.192-.365.359-.776.436a4.218,4.218,0,0,1-2.082-.23c-1.49-.525-2.249-1.522-2.1-1.951.068-.192.365-.359.776-.436a3.015,3.015,0,0,1,.552-.048,4.7,4.7,0,0,1,1.53.278,4.22,4.22,0,0,1,1.766,1.125C193.846,322.15,193.973,322.466,193.906,322.658Z" transform="translate(-165.239 -281.324)"/><path class="a" d="M38.9,40.338,36.337,42.9H32.943a.879.879,0,0,0,0,1.758H36.7a.879.879,0,0,0,.622-.257l2.818-2.818A.879.879,0,0,0,38.9,40.338Z" transform="translate(-28.306 -35.384)"/><path class="a" d="M433.75,49.857a.879.879,0,0,0,.879-.879V45.356l2.4-2.4a.879.879,0,0,0-1.243-1.243l-2.657,2.657a.879.879,0,0,0-.257.621v3.986A.879.879,0,0,0,433.75,49.857Z" transform="translate(-382.14 -36.598)"/><path class="a" d="M51.61,43.216a8.33,8.33,0,0,0-5.282,1.87l-3.147-3.147A17.72,17.72,0,0,0,47.792,30c0-.328-.009-.661-.027-.988a.879.879,0,1,0-1.755.1c.016.295.024.595.024.891,0,.25-.007.5-.018.745a2.65,2.65,0,0,1-2.175-.5c-1.324-1.1-1.17-3.476.342-5.3a5.741,5.741,0,0,1,.76-.759c.174.445.33.9.463,1.358a.879.879,0,0,0,1.689-.488,17.875,17.875,0,0,0-3.911-7l3.144-3.144a8.395,8.395,0,1,0-.654-12.461,8.395,8.395,0,0,0-.589,11.218l-3.142,3.142q-.557-.506-1.156-.964a17.774,17.774,0,0,0-22.722.969l-3.15-3.15a8.41,8.41,0,1,0-1.243,1.243l3.15,3.15a17.757,17.757,0,0,0,0,23.872l-3.147,3.147a8.4,8.4,0,1,0,1.243,1.243l3.147-3.147a17.757,17.757,0,0,0,23.872,0l3.147,3.147a8.395,8.395,0,1,0,6.525-3.113ZM46.918,3.7a6.637,6.637,0,1,1,0,9.386A6.616,6.616,0,0,1,46.918,3.7ZM8.395,15.032a6.637,6.637,0,1,1,6.637-6.637A6.644,6.644,0,0,1,8.395,15.032ZM13.088,56.3a6.634,6.634,0,1,1,0-9.386A6.615,6.615,0,0,1,13.088,56.3ZM30,46.034A16.05,16.05,0,0,1,13.971,30c0-.229.006-.456.016-.683a4.385,4.385,0,0,1,1.842-3.5,3.566,3.566,0,0,1,3.442.271c1.4.708,1.964,2.116,2.621,3.746l.067.165a.879.879,0,1,0,1.63-.659l-.066-.164c-.724-1.795-1.472-3.651-3.457-4.657-2.344-1.188-4.015-.82-5.025-.276A16.057,16.057,0,0,1,30,13.971c.237,0,.472.006.707.016a3.9,3.9,0,0,0-.757,2.278c-.016,2.239,1.85,4.773,5.121,6.954.894.6,2.843,2.364,1.642,5.9-1.223,3.607-4.4,5.389-6.773,5.231a6.472,6.472,0,0,1-4.562-1.807A.879.879,0,0,0,24.1,33.75a8.211,8.211,0,0,0,5.726,2.356q.23.015.459.015a7.747,7.747,0,0,0,4.878-1.833,10.191,10.191,0,0,0,3.216-4.6c1.1-3.256.232-6.22-2.332-7.93-2.687-1.792-4.35-3.891-4.338-5.478a2.522,2.522,0,0,1,1.219-2.039,15.859,15.859,0,0,1,6.792,3.013,16.186,16.186,0,0,1,4.473,5.3,7.41,7.41,0,0,0-1.362,1.277c-2.132,2.566-2.183,6.053-.113,7.772a4.265,4.265,0,0,0,2.754.952c.119,0,.24-.006.361-.014A16.056,16.056,0,0,1,30,46.034ZM56.3,56.3a6.634,6.634,0,1,1,0-9.386A6.615,6.615,0,0,1,56.3,56.3Z"/><path class="a" d="M404.347,433.129a.879.879,0,0,0-.622-.257H399.74a.879.879,0,1,0,0,1.758h3.622l2.4,2.4A.879.879,0,0,0,407,435.786Z" transform="translate(-352.115 -382.14)"/><path class="a" d="M44.992,398.861a.879.879,0,0,0-.879.879v3.622l-2.4,2.4A.879.879,0,1,0,42.957,407l2.657-2.657a.879.879,0,0,0,.257-.621V399.74A.879.879,0,0,0,44.992,398.861Z" transform="translate(-36.598 -352.115)"/></svg>