<svg xmlns="http://www.w3.org/2000/svg" xmlns:xlink="http://www.w3.org/1999/xlink" width="112.5" height="110" viewBox="0 0 112.5 110"><defs><style>.a{fill:url(#a);}.b{fill:url(#d);}.c{filter:url(#e);}.d{filter:url(#b);}</style><linearGradient id="a" x1="0.064" y1="0.022" x2="0.738" y2="0.782" gradientUnits="objectBoundingBox"><stop offset="0" stop-color="#96abe8"/><stop offset="0" stop-color="#f2f3f6"/><stop offset="1" stop-color="#e5e6ec"/></linearGradient><filter id="b" x="0" y="0" width="112.5" height="110" filterUnits="userSpaceOnUse"><feOffset dx="5" dy="5" input="SourceAlpha"/><feGaussianBlur stdDeviation="10" result="c"/><feFlood flood-color="#e3e6f8" flood-opacity="0.749"/><feComposite operator="in" in2="c"/><feComposite in="SourceGraphic"/></filter><linearGradient id="d" x1="0.064" y1="0.022" x2="0.606" y2="0.663" gradientUnits="objectBoundingBox"><stop offset="0" stop-color="#96abe8"/><stop offset="1" stop-color="#2d3e9f"/></linearGradient><filter id="e" x="13" y="13" width="70.5" height="68" filterUnits="userSpaceOnUse"><feOffset dx="-3" dy="-3" input="SourceAlpha"/><feGaussianBlur stdDeviation="3" result="f"/><feFlood flood-color="#fff"/><feComposite operator="in" in2="f"/><feComposite in="SourceGraphic"/></filter></defs><g transform="translate(-561.918 251)"><g transform="translate(586.918 -226)"><g class="d" transform="matrix(1, 0, 0, 1, -25, -25)"><path class="a" d="M1.981,50A1.984,1.984,0,0,1,0,48.014V22.884a1.987,1.987,0,0,1,1.984-1.99H14.511A14.53,14.53,0,0,1,29.019,35.154,14.7,14.7,0,0,1,14.244,50ZM8.9,29.9V40.994a.013.013,0,0,0,.013.013h5.529a5.551,5.551,0,0,0,5.54-5.749A5.645,5.645,0,0,0,14.3,29.89H8.918A.013.013,0,0,0,8.9,29.9ZM24.475,47.09c.356-.3.7-.622,1.031-.958a15.2,15.2,0,0,0,4.384-10.995A15.4,15.4,0,0,0,14.511,20.022H5.543V1.97A1.967,1.967,0,0,1,7.508,0H29.022a23.545,23.545,0,0,1,0,47.09Zm3.82-23.557a.763.763,0,0,0-.022.174.75.75,0,1,0,1.479-.169L43.2,13.809,29.434,23.079a.746.746,0,0,0-.832.005l-8.365-5.463Z" transform="translate(25 25)"/></g><g class="c" transform="matrix(1, 0, 0, 1, -25, -25)"><path class="b" d="M1.981,50A1.984,1.984,0,0,1,0,48.014V22.884a1.987,1.987,0,0,1,1.984-1.989H14.511A14.53,14.53,0,0,1,29.018,35.154,14.7,14.7,0,0,1,14.244,50ZM8.9,29.9V40.994a.013.013,0,0,0,.013.013h5.529a5.551,5.551,0,0,0,5.54-5.749A5.645,5.645,0,0,0,14.3,29.89H8.918A.013.013,0,0,0,8.9,29.9ZM24.475,47.089c.357-.3.7-.621,1.031-.958a15.2,15.2,0,0,0,4.384-10.995A15.4,15.4,0,0,0,14.511,20.021H5.543V1.97A1.967,1.967,0,0,1,7.508,0H29.021a23.545,23.545,0,0,1,0,47.089Zm3.82-23.557a.76.76,0,0,0-.022.174.75.75,0,1,0,1.5,0,.737.737,0,0,0-.021-.169L43.2,13.81,29.434,23.079a.745.745,0,0,0-.832.005L20.237,17.62Z" transform="translate(25 25)"/></g></g></g></svg>