<svg xmlns="http://www.w3.org/2000/svg" xmlns:xlink="http://www.w3.org/1999/xlink" width="48" height="48" viewBox="0 0 48 48"><defs><style>.a{fill:#96abe8;}.b{fill:#fff;}.c{filter:url(#a);}</style><filter id="a" x="0" y="0" width="48" height="48" filterUnits="userSpaceOnUse"><feOffset dx="3" dy="3" input="SourceAlpha"/><feGaussianBlur stdDeviation="3" result="b"/><feFlood flood-color="#e3e6f8" flood-opacity="0.749"/><feComposite operator="in" in2="b"/><feComposite in="SourceGraphic"/></filter></defs><g transform="translate(6 6)"><g class="c" transform="matrix(1, 0, 0, 1, -6, -6)"><circle class="a" cx="15" cy="15" r="15" transform="translate(6 6)"/></g><path class="b" d="M131.419,131.419a1.469,1.469,0,0,1-2.059,0l-4.773-4.773-4.773,4.773a1.456,1.456,0,0,1-2.059-2.059l4.773-4.773-4.773-4.773a1.456,1.456,0,0,1,2.059-2.059l4.773,4.773,4.773-4.773a1.456,1.456,0,0,1,2.059,2.059l-4.773,4.773,4.773,4.773A1.469,1.469,0,0,1,131.419,131.419Z" transform="translate(-109.587 -109.587)"/></g></svg>