<svg xmlns="http://www.w3.org/2000/svg" width="38" height="57" viewBox="0 0 38 57"><defs><style>.a{fill:#c9d7ff;}.b{fill:#f3f6ff;}.c{fill:#fff;}.d{fill:#e8f3ff;}.e{fill:#b9dcff;}.f{fill:#a2d0ff;}.g{fill:#2d3e9f;}</style></defs><g transform="translate(-77.95 0.05)"><path class="a" d="M122.05,57.417V62.1a.943.943,0,0,1-.936.949H86.936A.943.943,0,0,1,86,62.1V57.417A8.829,8.829,0,0,1,94.776,48.6a4.876,4.876,0,0,0,4.8-4.9v-.81l.018-.044a11.749,11.749,0,0,1-7.157-10.856V31.61A2.906,2.906,0,0,1,89.511,28.7V17.135a3.182,3.182,0,0,1,3.16-3.2A9.313,9.313,0,0,1,101.316,8h7.977a9.429,9.429,0,0,1,9.364,9.491V28.526a3.064,3.064,0,0,1-3.043,3.084v.371a11.749,11.749,0,0,1-7.157,10.856l.018.044v.81a4.876,4.876,0,0,0,4.8,4.9A8.829,8.829,0,0,1,122.05,57.417Z" transform="translate(-8.05 -8.05)"/><path class="b" d="M122.05,343.422v4.686a.943.943,0,0,1-.936.95H86.936a.943.943,0,0,1-.936-.95v-4.686a8.83,8.83,0,0,1,8.776-8.825,4.829,4.829,0,0,0,3.929-2.1l4.623,5.211a.929.929,0,0,0,1.393,0l4.623-5.211a4.829,4.829,0,0,0,3.929,2.1A8.83,8.83,0,0,1,122.05,343.422Z" transform="translate(-7.05 -293.058)"/><path class="b" d="M162.572,121.68a.931.931,0,0,1,1.2.906c0,1.02,0,2.64,0,6.874a11.5,11.5,0,1,1-22.995,0c0-2.166-.021-3.705-.029-5.031a5.688,5.688,0,0,1,7-5.666c3.3.808,4.442,2.434,8.478,3.323A12.167,12.167,0,0,0,162.572,121.68Z" transform="translate(-55.301 -104.529)"/><path class="a" d="M145.048,17.5v11.04a3.059,3.059,0,0,1-3.033,3.085c0-3.622,0-5.5,0-6.5a.935.935,0,0,0-1.207-.906,12.274,12.274,0,0,1-6.376.406c-4.054-.889-5.2-2.515-8.516-3.323a5.707,5.707,0,0,0-7.029,5.666c.007,1.212.027,2.726.029,4.66A2.9,2.9,0,0,1,116,28.707V17.139a3.178,3.178,0,0,1,3.15-3.2A9.283,9.283,0,0,1,127.765,8h7.95a9.415,9.415,0,0,1,9.333,9.5Z" transform="translate(-34.49 -8.05)"/><g transform="translate(78.95 39.442)"><path class="c" d="M260.768,334.2c-.015.031-1.186,5.361-1.179,5.327a.874.874,0,0,1-1.513.385,38.5,38.5,0,0,0-3.007-3.405l3.606-4.007A4.932,4.932,0,0,0,260.768,334.2Z" transform="translate(-235.002 -332.499)"/><path class="c" d="M179.013,332.5l3.52,3.912-2.92,3.461a.874.874,0,0,1-1.521-.375c-.007-.034-1.157-5.265-1.172-5.3A4.931,4.931,0,0,0,179.013,332.5Z" transform="translate(-166.128 -332.5)"/><path class="c" d="M97.409,349.61a8.852,8.852,0,0,0-8.442,8.842v3.236H86.95a.95.95,0,0,1-.95-.95v-4.679a8.9,8.9,0,0,1,8.9-8.832,4.917,4.917,0,0,0,1.889-.4C96.806,346.861,97.4,349.576,97.409,349.61Z" transform="translate(-86 -345.129)"/></g><path class="a" d="M297.88,349.61a8.852,8.852,0,0,1,8.441,8.842v3.236h2.018a.95.95,0,0,0,.95-.95v-4.679a8.9,8.9,0,0,0-8.9-8.832,4.917,4.917,0,0,1-1.889-.4C298.482,346.861,297.887,349.576,297.88,349.61Z" transform="translate(-195.289 -306.687)"/><path class="d" d="M179.087,337.485l.526,2.387a.873.873,0,0,1-1.521-.375c-.456-2.073-1.162-5.275-1.172-5.3a4.932,4.932,0,0,0,2.093-1.7l1.014,1.128A4.583,4.583,0,0,0,179.087,337.485Z" transform="translate(-87.348 -293.053)"/><path class="a" d="M215.35,365.555l1.772,12.551H210l1.687-12.646,1.168,1.3a.949.949,0,0,0,1.411,0Z" transform="translate(-117.57 -323.106)"/><path class="e" d="M212.927,366.838l-1.5,11.268H210l1.687-12.646Z" transform="translate(-116.556 -322.106)"/><path class="f" d="M210.159,303.623a11.783,11.783,0,0,1-9.289,0,7.356,7.356,0,0,0,.134-1.949l.018-.044a11.775,11.775,0,0,0,8.985,0l.018.044A7.358,7.358,0,0,0,210.159,303.623Z" transform="translate(-108.54 -265.844)"/><path class="c" d="M149.87,151.7a1.876,1.876,0,0,1-1.707,3.323,11.753,11.753,0,0,1-7.385-10.912c0-2.169-.022-3.7-.03-5.031a5.782,5.782,0,0,1,.95-3.222,1.427,1.427,0,0,1,2.611.848c.008,1.336.03,2.86.03,5.031A11.666,11.666,0,0,0,149.87,151.7Z" transform="translate(-55.435 -119.183)"/><path class="b" d="M140.3,9a1.354,1.354,0,0,1-.625,2.565h-8.14a9.443,9.443,0,0,0-8.485,5.3,1.311,1.311,0,0,1-.927.7,3.206,3.206,0,0,0-2.559,3.14c0,3.581.039,3.5-.118,3.849-.633,1.411-.5,2.3-.485,4.989a1.353,1.353,0,0,1-2.459.793,2.885,2.885,0,0,1-.5-1.624V17.139a3.2,3.2,0,0,1,3.2-3.2A9.442,9.442,0,0,1,127.97,8h8.089A9.456,9.456,0,0,1,140.3,9Z" transform="translate(-33.49 -7.05)"/><path class="g" d="M106.278,40.6a3.882,3.882,0,0,1-3.349-1.9.93.93,0,0,0-1.288-.317.956.956,0,0,0-.313,1.3,5.82,5.82,0,0,0,1.96,1.978l-.971,4.464-2.341-2.731a.962.962,0,0,0-.044-1.4.929.929,0,0,0-1.322.093l-1.648,1.919-4.15-4.671a5.854,5.854,0,0,0,.628-2.226,12.578,12.578,0,0,0,16.067-12.18c0-8.048.01-7.922-.022-8.252a.939.939,0,1,0-1.865.186c.021.215.013.4.013,8.066a10.66,10.66,0,1,1-21.317,0c0-2.122-.022-3.729-.03-5.036a4.783,4.783,0,0,1,5.9-4.735c4.342,1.055,6.089,3.8,11.652,3.534a.949.949,0,0,0-.088-1.9c-5.034.238-6.385-2.332-11.127-3.484a6.663,6.663,0,0,0-8.213,6.592c.006.949.019,2.1.026,3.476a1.963,1.963,0,0,1-1.05-1.735V10.085a2.242,2.242,0,0,1,2.225-2.254.937.937,0,0,0,.87-.6A8.341,8.341,0,0,1,94.264,1.9h7.982a8.5,8.5,0,0,1,8.433,8.542V21.648a.937.937,0,1,0,1.874,0V10.441A10.386,10.386,0,0,0,102.246,0H94.264a10.192,10.192,0,0,0-9.287,5.982,4.143,4.143,0,0,0-3.463,4.1V21.648A3.863,3.863,0,0,0,84.452,25.4a12.72,12.72,0,0,0,7.135,10.992v.25a3.95,3.95,0,0,1-1.146,2.8A3.817,3.817,0,0,1,87.671,40.6,9.729,9.729,0,0,0,78,50.393V56a.937.937,0,1,0,1.874,0V50.393a7.844,7.844,0,0,1,7.8-7.9,5.775,5.775,0,0,0,1.224-.132L90.2,48.374a.934.934,0,0,0,1.623.418l1.846-2.153-1.141,9.244a.937.937,0,1,0,1.86.236l1.318-10.683c.058.065.582.66.647.718a.929.929,0,0,0,1.321-.084l.562-.653,1.321,10.7a.937.937,0,1,0,1.86-.236l-1.141-9.244,1.846,2.153a.934.934,0,0,0,1.623-.418l1.308-6.011a5.812,5.812,0,0,0,1.224.132,7.844,7.844,0,0,1,7.8,7.9V56a.937.937,0,1,0,1.874,0V50.393a9.729,9.729,0,0,0-9.672-9.8ZM91.633,46.122l-.971-4.466a5.821,5.821,0,0,0,1-.776l2.272,2.557Z" transform="translate(0)"/></g></svg>