<svg xmlns="http://www.w3.org/2000/svg" width="15.245" height="18.293" viewBox="0 0 15.245 18.293"><defs><style>.a{fill:#2d3e9f;}</style></defs><g transform="translate(-45.113 0)"><path class="a" d="M45.533,15.253h.016a.274.274,0,0,0,.255-.291A88.2,88.2,0,0,1,45.929,2.9a1.236,1.236,0,0,1,1.1-1.135c.285-.031.573-.059.859-.085v.477a.916.916,0,1,0,1.832,0V1.543c.262-.015.526-.028.79-.039v.65a.916.916,0,1,0,1.832,0V1.459c.263,0,.527,0,.79,0v.695a.916.916,0,1,0,1.832,0V1.5c.265.011.529.024.79.039v.611a.916.916,0,1,0,1.832,0V1.677c.286.026.574.054.859.085a1.236,1.236,0,0,1,1.1,1.135c.044.558.084,1.131.118,1.7a.273.273,0,0,0,.27.258h.017a.274.274,0,0,0,.254-.291c-.034-.576-.074-1.153-.119-1.714A1.782,1.782,0,0,0,58.5,1.215c-.3-.033-.611-.063-.916-.09v-.2a.916.916,0,1,0-1.832,0V.992c-.262-.015-.526-.028-.79-.038V.929A.916.916,0,1,0,53.13.909c-.263,0-.528,0-.791,0a.916.916,0,1,0-1.831.02V.953c-.265.011-.529.024-.79.038V.929a.916.916,0,1,0-1.832,0v.2c-.306.027-.613.057-.916.09a1.782,1.782,0,0,0-1.58,1.638,88.774,88.774,0,0,0-.126,12.141A.273.273,0,0,0,45.533,15.253ZM56.294.929a.374.374,0,1,1,.748,0V2.154a.374.374,0,1,1-.748,0Zm-2.622,0a.374.374,0,1,1,.748,0V2.154a.374.374,0,1,1-.748,0Zm-2.622,0a.374.374,0,1,1,.748,0V2.154a.374.374,0,1,1-.748,0Zm-2.622,0a.374.374,0,1,1,.748,0V2.154a.374.374,0,1,1-.748,0Z" transform="translate(0 0)"/><path class="a" d="M66.121,147.082a.271.271,0,1,0-.541.027,88.025,88.025,0,0,1-.175,11.113,1.236,1.236,0,0,1-1.1,1.135,53.9,53.9,0,0,1-11.417,0,1.236,1.236,0,0,1-1.1-1.135c-.017-.219-.035-.451-.055-.732a.271.271,0,1,0-.541.04c.02.282.038.516.055.736a1.782,1.782,0,0,0,1.58,1.637,54.432,54.432,0,0,0,11.53,0,1.782,1.782,0,0,0,1.58-1.638,88.584,88.584,0,0,0,.177-11.184Z" transform="translate(-5.863 -141.916)"/><path class="a" d="M181.3,139.486h-8.178a.275.275,0,0,0,0,.55H181.3a.275.275,0,1,0,0-.55Z" transform="translate(-123.272 -134.506)"/><path class="a" d="M101.3,139.486h-1.239a.275.275,0,0,0,0,.55H101.3a.275.275,0,1,0,0-.55Z" transform="translate(-52.668 -134.506)"/><path class="a" d="M117.235,104.567v-.5a.275.275,0,0,0-.55,0v.5a.275.275,0,0,0,.55,0Z" transform="translate(-68.986 -100.093)"/><path class="a" d="M181.3,210.773h-8.178a.275.275,0,1,0,0,.55H181.3a.275.275,0,1,0,0-.55Z" transform="translate(-123.272 -203.248)"/><path class="a" d="M101.3,210.773h-1.239a.275.275,0,1,0,0,.55H101.3a.275.275,0,1,0,0-.55Z" transform="translate(-52.668 -203.248)"/><path class="a" d="M117.235,175.854v-.5a.275.275,0,1,0-.55,0v.5a.275.275,0,0,0,.55,0Z" transform="translate(-68.986 -168.837)"/><path class="a" d="M181.3,282.06h-8.178a.275.275,0,0,0,0,.55H181.3a.275.275,0,1,0,0-.55Z" transform="translate(-123.272 -271.989)"/><path class="a" d="M101.3,282.06h-1.239a.275.275,0,0,0,0,.55H101.3a.275.275,0,0,0,0-.55Z" transform="translate(-52.668 -271.989)"/><path class="a" d="M117.235,247.142v-.5a.275.275,0,1,0-.55,0v.5a.275.275,0,1,0,.55,0Z" transform="translate(-68.986 -237.581)"/><path class="a" d="M181.3,353.347h-8.178a.275.275,0,0,0,0,.55H181.3a.275.275,0,1,0,0-.55Z" transform="translate(-123.272 -340.731)"/><path class="a" d="M101.3,353.347h-1.239a.275.275,0,0,0,0,.55H101.3a.275.275,0,0,0,0-.55Z" transform="translate(-52.668 -340.731)"/><path class="a" d="M117.235,318.428v-.5a.275.275,0,1,0-.55,0v.5a.275.275,0,0,0,.55,0Z" transform="translate(-68.986 -306.324)"/><path class="a" d="M181.3,424.633h-8.178a.275.275,0,1,0,0,.55H181.3a.275.275,0,1,0,0-.55Z" transform="translate(-123.272 -409.542)"/><path class="a" d="M99.786,424.908a.275.275,0,0,0,.275.275H101.3a.275.275,0,1,0,0-.55h-1.239A.275.275,0,0,0,99.786,424.908Z" transform="translate(-52.668 -409.542)"/><path class="a" d="M117.235,389.714v-.5a.275.275,0,1,0-.55,0v.5a.275.275,0,1,0,.55,0Z" transform="translate(-68.986 -375.067)"/></g></svg>