<svg xmlns="http://www.w3.org/2000/svg" width="25" height="25" viewBox="0 0 25 25"><defs><style>.a{fill:#2d3e9f;}</style></defs><g transform="translate(0 -0.683)"><path class="a" d="M124.445,4.1A3.316,3.316,0,0,0,121.48,1a57.2,57.2,0,0,0-12.049,0,3.317,3.317,0,0,0-2.965,3.1c-.172,2.7-.267,5.439-.286,8.147a2.257,2.257,0,0,0-.494,3.8l.054.043c-.024.041-.046.083-.068.126a2.167,2.167,0,0,0,.618,2.671c.045,1.125.1,2.263.175,3.386a3.317,3.317,0,0,0,2.965,3.1,57.123,57.123,0,0,0,6.025.318,57.113,57.113,0,0,0,6.024-.318,3.316,3.316,0,0,0,2.965-3.1A143.607,143.607,0,0,0,124.445,4.1ZM106.329,16.537a24.22,24.22,0,0,0,2.385,1.529,1.425,1.425,0,0,1-2.385-1.529Zm17.384,5.685a2.584,2.584,0,0,1-2.311,2.412,56.473,56.473,0,0,1-11.895,0,2.585,2.585,0,0,1-2.311-2.412c-.063-.985-.115-1.98-.157-2.968a2.11,2.11,0,0,0,.826.061c.025.478.052.947.08,1.4a2.811,2.811,0,0,0,2.512,2.623,47.394,47.394,0,0,0,5,.264,47.4,47.4,0,0,0,5-.264,2.811,2.811,0,0,0,2.512-2.623,118.83,118.83,0,0,0,0-15.06A2.8,2.8,0,0,0,122.7,4.63a.366.366,0,1,0-.662.314,2.073,2.073,0,0,1,.194.756,118.109,118.109,0,0,1,0,14.967,2.079,2.079,0,0,1-1.858,1.939,46.724,46.724,0,0,1-9.839,0,2.079,2.079,0,0,1-1.858-1.939c-.032-.5-.062-1.032-.089-1.572a2.134,2.134,0,0,0,.774-.67q.528.283,1.093.563c.169.084.336.164.462.225a.367.367,0,0,0,.316-.662c-.124-.06-.288-.139-.454-.221a25.154,25.154,0,0,1-4.634-2.858,1.511,1.511,0,0,1,1.07-2.677l.049,0a2.081,2.081,0,0,0,1.992-1.032,14.806,14.806,0,0,1,1.062-1.619,4.313,4.313,0,0,1,4.875-1.475c.166.059.267.105.285.113s.116.061.262.158a4.336,4.336,0,0,1,1.8,4.776,14.818,14.818,0,0,1-.636,1.83,2.093,2.093,0,0,0,.394,2.213l.005.005.027.029a1.51,1.51,0,0,1-1.468,2.481,21.564,21.564,0,0,1-3.312-1.133.367.367,0,0,0-.286.676,22.287,22.287,0,0,0,3.426,1.171,2.32,2.32,0,0,0,.548.066,2.249,2.249,0,0,0,1.638-3.75l-.041-.044a1.355,1.355,0,0,1-.256-1.43,15.561,15.561,0,0,0,.667-1.922,5.077,5.077,0,0,0-1.419-5.045,1.743,1.743,0,1,0-2.229-1.1A5.05,5.05,0,0,0,109.737,9.7a15.549,15.549,0,0,0-1.116,1.7,1.3,1.3,0,0,1-.171.235c.026-1.979.1-3.972.227-5.937a2.079,2.079,0,0,1,1.858-1.939c.294-.031.587-.059.874-.084a1.691,1.691,0,0,0,1.345.959,25.686,25.686,0,0,0,5.4,0,1.691,1.691,0,0,0,1.345-.959c.288.025.581.053.873.084a2.064,2.064,0,0,1,.823.269.367.367,0,0,0,.367-.636,2.791,2.791,0,0,0-1.113-.363c-.393-.042-.786-.079-1.169-.109a.367.367,0,0,0-.384.275.954.954,0,0,1-.82.709,24.95,24.95,0,0,1-5.248,0,.953.953,0,0,1-.82-.709.366.366,0,0,0-.384-.275c-.38.03-.774.067-1.169.109a2.811,2.811,0,0,0-2.512,2.623c-.135,2.116-.213,4.266-.233,6.395a1.367,1.367,0,0,1-.383.02l-.052,0a2.353,2.353,0,0,0-.364,0c.021-2.633.115-5.294.282-7.918a2.585,2.585,0,0,1,2.311-2.412,56.466,56.466,0,0,1,11.895,0,2.584,2.584,0,0,1,2.311,2.412,142.87,142.87,0,0,1,0,18.079ZM115.8,8.128a1.012,1.012,0,0,1-.457-1.352,1.008,1.008,0,1,1,.457,1.352Z" transform="translate(-99.732 0)"/><path class="a" d="M281.647,34.565h-3.594a.366.366,0,1,0,0,.732h3.594a.366.366,0,1,0,0-.732Z" transform="translate(-264.126 -32.228)"/><path class="a" d="M23.6,174.877l-.892-.6a1.031,1.031,0,0,0-1.468.34l-.123.213a1.031,1.031,0,0,0,.44,1.442l.966.473a1.023,1.023,0,0,0,.45.1,1.034,1.034,0,0,0,.9-.515l.05-.086h0A1.034,1.034,0,0,0,23.6,174.877Zm-.317,1-.05.086a.3.3,0,0,1-.39.119l-.966-.473a.3.3,0,0,1-.127-.418l.123-.213a.3.3,0,0,1,.191-.142.3.3,0,0,1,.068-.008.3.3,0,0,1,.166.051l.892.6A.3.3,0,0,1,23.286,175.882Z" transform="translate(-19.956 -164.924)"/><path class="a" d="M1.1,259.05l1.073-.074a1.034,1.034,0,0,0,.961-1.029v-.1a1.034,1.034,0,0,0-.961-1.029L1.1,256.746A1.031,1.031,0,0,0,0,257.775v.246a1.031,1.031,0,0,0,1.032,1.031Zm-.274-.81a.3.3,0,0,1-.095-.218v-.246a.3.3,0,0,1,.3-.3h.021l1.073.074a.3.3,0,0,1,.278.3v.1a.3.3,0,0,1-.278.3l-1.073.074a.3.3,0,0,1-.224-.08Z" transform="translate(0 -243.52)"/><path class="a" d="M23.87,330.913a1.034,1.034,0,0,0-1.346-.41l-.966.473a1.031,1.031,0,0,0-.44,1.442l.123.213a1.035,1.035,0,0,0,.66.489,1.024,1.024,0,0,0,.231.026,1.035,1.035,0,0,0,.577-.175l.892-.6A1.034,1.034,0,0,0,23.919,331Zm-.677.849-.892.6a.3.3,0,0,1-.426-.1l-.123-.213a.3.3,0,0,1,.127-.418l.966-.473a.3.3,0,0,1,.131-.03.3.3,0,0,1,.26.149h0l.05.086A.3.3,0,0,1,23.193,331.762Z" transform="translate(-19.956 -313.565)"/></g></svg>