<svg xmlns="http://www.w3.org/2000/svg" width="60.002" height="60.002" viewBox="0 0 60.002 60.002"><defs><style>.a{fill:#2d3e9f;}</style></defs><path class="a" d="M51.215,8.787A30,30,0,1,0,8.787,51.215a30.016,30.016,0,0,0,35.972,4.912.879.879,0,1,0-.866-1.53A28.249,28.249,0,1,1,58.244,30,27.933,27.933,0,0,1,55.123,42.92a28.5,28.5,0,0,1-8.334,9.8.879.879,0,1,0,1.046,1.413,30.27,30.27,0,0,0,8.851-10.4A30.021,30.021,0,0,0,51.215,8.787Z"/><path class="a" d="M49.41,38.9a.879.879,0,0,0-1.2-.326A25.871,25.871,0,0,0,35.167,61.047,25.858,25.858,0,1,0,51.5,36.986a.879.879,0,1,0,.649,1.634,23.958,23.958,0,0,1,8.021-1.678v3.081a.879.879,0,1,0,1.758,0v-3.08a24.031,24.031,0,0,1,15.536,6.446l-2.17,2.17A.879.879,0,1,0,76.534,46.8l2.17-2.17a24.031,24.031,0,0,1,6.446,15.536H82.071a.879.879,0,0,0,0,1.758h3.081A24.031,24.031,0,0,1,78.7,77.462l-2.17-2.17a.879.879,0,1,0-1.243,1.243l2.17,2.17a24.031,24.031,0,0,1-15.536,6.446V82.07a.879.879,0,0,0-1.758,0v3.081A24.032,24.032,0,0,1,44.632,78.7l2.17-2.17a.879.879,0,0,0-1.243-1.243l-2.17,2.17a24.031,24.031,0,0,1-6.446-15.536h3.081a.879.879,0,1,0,0-1.758H36.941a24.008,24.008,0,0,1,6.441-15.543L45.559,46.8A.879.879,0,0,0,46.8,45.559l-2.178-2.178a24.2,24.2,0,0,1,4.46-3.285.879.879,0,0,0,.326-1.2Z" transform="translate(-31.046 -31.046)"/><path class="a" d="M236.137,159.726a.879.879,0,0,0-.879.879v7.579a2.636,2.636,0,1,0,3.217,3.7h13.309a.879.879,0,0,0,0-1.758H238.718a2.646,2.646,0,0,0-1.7-1.946V160.6a.879.879,0,0,0-.879-.879Zm0,11.822a.879.879,0,1,1,.879-.879A.88.88,0,0,1,236.137,171.548Z" transform="translate(-206.136 -141.007)"/><path class="a" d="M222,328.379a.879.879,0,0,0,.879.879h6.211a.879.879,0,0,0,0-1.758h-6.211A.879.879,0,0,0,222,328.379Z" transform="translate(-195.983 -289.12)"/></svg>