<svg xmlns="http://www.w3.org/2000/svg" width="50" height="50" viewBox="0 0 50 50"><defs><style>.a{fill:#2d3e9f;}</style></defs><g transform="translate(-2.001 -2.403)"><path class="a" d="M15,50a.834.834,0,0,1-.833-.834V45.833A.833.833,0,0,1,15,45h5.388l2.222-3.334H5.833a2.5,2.5,0,0,1-2.5-2.5v-7.5H2.5a2.5,2.5,0,0,1-2.5-2.5V2.5A2.5,2.5,0,0,1,2.5,0h15A2.5,2.5,0,0,1,20,2.5V8.334H47.5a2.5,2.5,0,0,1,2.5,2.5V39.167a2.5,2.5,0,0,1-2.5,2.5H30.723L32.946,45h5.387a.833.833,0,0,1,.833.833v3.333a.833.833,0,0,1-.833.834Zm.834-1.667H37.5V46.666H15.833ZM22.391,45h8.552l-2.222-3.334H24.612ZM5,39.167A.833.833,0,0,0,5.833,40H47.5a.833.833,0,0,0,.833-.833V35H5Zm0-5.833H48.333v-22.5A.833.833,0,0,0,47.5,10H20V29.166a2.5,2.5,0,0,1-2.5,2.5H5ZM17.5,30a.833.833,0,0,0,.833-.833V25H1.667v4.167A.833.833,0,0,0,2.5,30H10a2.5,2.5,0,1,1,2.5-2.5A2.5,2.5,0,0,1,10,30ZM9.167,27.5A.833.833,0,1,0,10,26.667.833.833,0,0,0,9.167,27.5Zm-7.5-4.167H18.333V6.667H1.667Zm0-20.833V5H18.333V2.5a.833.833,0,0,0-.833-.833H2.5A.833.833,0,0,0,1.667,2.5ZM25.833,38.333V36.667H27.5v1.666ZM24.166,21.667a10,10,0,1,1,10,10A10,10,0,0,1,24.166,21.667Zm1.667,0a8.333,8.333,0,1,0,8.333-8.333A8.333,8.333,0,0,0,25.833,21.667Zm17.5,10V30H45V25.834h1.667v5.833ZM29.166,27.5V24.166A.833.833,0,0,1,30,23.333h3.333V25H31.671a4.161,4.161,0,0,0,6.6-2.638l1.643.275a5.825,5.825,0,0,1-9.083,3.809V27.5Zm-.833-5.833a5.827,5.827,0,0,1,10-4.074v-.926H40V20a.834.834,0,0,1-.833.833H35.833V19.167H37.5a4.166,4.166,0,0,0-7.5,2.5Zm-25,0V8.334H16.667V21.667ZM5,18.678V20h8.642L8.367,15.311ZM11.312,15.7,15,18.977V15.345l-1.667-1.667ZM5,16.322l2.744-2.744a.834.834,0,0,1,1.144-.033l1.177,1.046,2.68-2.68a.857.857,0,0,1,1.178,0L15,12.988V10H5Zm16.667.345V15h1.667v1.666Zm0-3.333V11.667h1.667v1.667Z" transform="translate(2.001 2.403)"/></g></svg>