<svg xmlns="http://www.w3.org/2000/svg" width="23.979" height="23.977" viewBox="0 0 23.979 23.977"><defs><style>.a{stroke:#fff;stroke-width:0.25px;}</style></defs><g transform="translate(-0.647 0.125)"><path class="a" d="M192.476,408.788v-.015a.29.29,0,1,0-.58,0v.015a.29.29,0,0,0,.58,0Z" transform="translate(-182.186 -389.44)"/><path class="a" d="M261.232,285.594a.579.579,0,0,0-.413-.413l-1.591-.426a.584.584,0,0,0-.716.716l.426,1.591a.584.584,0,0,0,.978.262l.052-.052.369.369a.75.75,0,0,0,1.061-1.061l-.369-.369.052-.052A.578.578,0,0,0,261.232,285.594Zm-.244,1.636a.171.171,0,0,1-.242,0l-.574-.573a.29.29,0,0,0-.41,0l-.258.258a.007.007,0,0,1-.006,0l-.427-1.593a.008.008,0,0,1,.006,0l1.591.426h0a.007.007,0,0,1,0,.007l-.257.257a.29.29,0,0,0,0,.41l.574.574A.171.171,0,0,1,260.988,287.23Z" transform="translate(-245.347 -271.115)"/><path class="a" d="M24.5,6.013a6.031,6.031,0,1,0-12.022.69c-3.266-.078-6.574,0-9.842.233A1.678,1.678,0,0,0,1.092,8.4a42.761,42.761,0,0,0,0,10.42,1.677,1.677,0,0,0,1.545,1.465l.632.043h.023a.348.348,0,0,0,.022-.695l-.627-.043a.979.979,0,0,1-.9-.855,42.066,42.066,0,0,1,0-10.251.98.98,0,0,1,.9-.855C5.979,7.4,9.313,7.32,12.6,7.4q.045.191.1.377l-.631-.015a.348.348,0,1,0-.014.7c.3.006.6.013.912.022a6.048,6.048,0,0,0,4.476,3.456A41.28,41.28,0,0,1,17.3,17.5a.285.285,0,0,1-.268.258c-2.33.152-4.69.23-7.015.23S5.328,17.915,3,17.763a.285.285,0,0,1-.268-.258,41.061,41.061,0,0,1,.11-8.813c2.382-.168,4.795-.252,7.172-.252l.656,0h0a.348.348,0,0,0,0-.7l-.66,0c-2.42,0-4.876.087-7.3.26a.6.6,0,0,0-.555.528,41.751,41.751,0,0,0-.122,9.038.979.979,0,0,0,.917.887c2.345.153,4.721.231,7.061.231s4.716-.078,7.061-.231a.979.979,0,0,0,.917-.886,41.975,41.975,0,0,0,.158-5.553q.159.008.321.009h.056a42.1,42.1,0,0,1-.284,6.711.979.979,0,0,1-.9.855A103.445,103.445,0,0,1,4.7,19.715a.348.348,0,1,0-.036.695q1.276.066,2.558.1L6.974,21.8H5.812a.965.965,0,1,0,0,1.929h8.4a.965.965,0,1,0,0-1.929H13.052L12.8,20.509q2.3-.062,4.586-.224a1.677,1.677,0,0,0,1.545-1.465,42.794,42.794,0,0,0,.288-6.842A6.028,6.028,0,0,0,24.5,6.013ZM14.485,22.763a.27.27,0,0,1-.27.269h-8.4a.269.269,0,1,1,0-.538h8.4A.27.27,0,0,1,14.485,22.763ZM12.342,21.8H7.685l.245-1.272q1.037.021,2.077.021t2.089-.022Zm9.09-11.366-.179-.308a.349.349,0,0,0-.6.348l.179.309a5.306,5.306,0,0,1-2.01.537V10.48a.349.349,0,0,0-.7,0v.839a5.306,5.306,0,0,1-2.01-.537l.179-.309a.349.349,0,0,0-.6-.348l-.179.308a5.368,5.368,0,0,1-1.471-1.466l.309-.178a.348.348,0,1,0-.349-.6l-.31.179a5.265,5.265,0,0,1-.539-2h.841a.348.348,0,1,0,0-.7h-.841a5.265,5.265,0,0,1,.539-2L14,3.84a.348.348,0,1,0,.349-.6l-.309-.178a5.368,5.368,0,0,1,1.471-1.466l.179.308a.349.349,0,0,0,.6-.348l-.179-.309a5.306,5.306,0,0,1,2.01-.537v.839a.349.349,0,0,0,.7,0V.707a5.306,5.306,0,0,1,2.01.537l-.179.309a.349.349,0,0,0,.6.348l.179-.308A5.368,5.368,0,0,1,22.9,3.06l-.309.178a.348.348,0,0,0,.349.6l.31-.179a5.265,5.265,0,0,1,.539,2H22.95a.348.348,0,1,0,0,.7h.841a5.265,5.265,0,0,1-.539,2l-.31-.179a.348.348,0,1,0-.349.6l.309.178a5.367,5.367,0,0,1-1.471,1.466Z" transform="translate(0)"/><path class="a" d="M304.452,66.855a.892.892,0,0,0-.891.891v.644h-1.3a.891.891,0,0,0,0,1.782h2.193a.892.892,0,0,0,.891-.891V67.746A.892.892,0,0,0,304.452,66.855Zm-2.5,2.426a.312.312,0,0,1,.311-.311h1.3v.311a.886.886,0,0,0,.056.311h-1.358A.312.312,0,0,1,301.948,69.281Zm2.816,0a.311.311,0,0,1-.623,0V67.746a.311.311,0,0,1,.623,0Z" transform="translate(-286.013 -64.272)"/></g></svg>