<svg xmlns="http://www.w3.org/2000/svg" width="25" height="25" viewBox="0 0 25 25"><defs><style>.a{fill:#2d3e9f;}</style></defs><path class="a" d="M12.5,0A12.5,12.5,0,1,0,25,12.5,12.514,12.514,0,0,0,12.5,0Zm0,23.535A11.035,11.035,0,1,1,23.535,12.5,11.048,11.048,0,0,1,12.5,23.535Z"/><path class="a" d="M156.127,70.254A5.127,5.127,0,1,0,151,65.127,5.133,5.133,0,0,0,156.127,70.254Zm0-8.789a3.662,3.662,0,1,1-3.662,3.662A3.666,3.666,0,0,1,156.127,61.465Z" transform="translate(-143.627 -57.07)"/><path class="a" d="M97.058,301.731A5.131,5.131,0,0,0,93.218,300H84.428a5.131,5.131,0,0,0-3.84,1.731l-.347.392.259.455a9.573,9.573,0,0,0,16.646,0l.259-.455Zm-8.235,4.226a8.13,8.13,0,0,1-6.757-3.628,3.665,3.665,0,0,1,2.362-.865h8.789a3.665,3.665,0,0,1,2.362.865A8.13,8.13,0,0,1,88.823,305.957Z" transform="translate(-76.323 -285.352)"/></svg>